G04 #@! TF.GenerationSoftware,KiCad,Pcbnew,5.0.2-bee76a0~70~ubuntu16.04.1*
G04 #@! TF.CreationDate,2019-11-30T17:31:12+01:00*
G04 #@! TF.ProjectId,bambule,62616d62-756c-4652-9e6b-696361645f70,rev?*
G04 #@! TF.SameCoordinates,Original*
G04 #@! TF.FileFunction,Paste,Top*
G04 #@! TF.FilePolarity,Positive*
%FSLAX46Y46*%
G04 Gerber Fmt 4.6, Leading zero omitted, Abs format (unit mm)*
G04 Created by KiCad (PCBNEW 5.0.2-bee76a0~70~ubuntu16.04.1) date Sat 30 Nov 2019 05:31:12 PM CET*
%MOMM*%
%LPD*%
G01*
G04 APERTURE LIST*
%ADD10C,0.100000*%
%ADD11C,1.150000*%
%ADD12R,1.560000X0.650000*%
G04 APERTURE END LIST*
D10*
G04 #@! TO.C,R1*
G36*
X76474505Y-100451204D02*
X76498773Y-100454804D01*
X76522572Y-100460765D01*
X76545671Y-100469030D01*
X76567850Y-100479520D01*
X76588893Y-100492132D01*
X76608599Y-100506747D01*
X76626777Y-100523223D01*
X76643253Y-100541401D01*
X76657868Y-100561107D01*
X76670480Y-100582150D01*
X76680970Y-100604329D01*
X76689235Y-100627428D01*
X76695196Y-100651227D01*
X76698796Y-100675495D01*
X76700000Y-100699999D01*
X76700000Y-101350001D01*
X76698796Y-101374505D01*
X76695196Y-101398773D01*
X76689235Y-101422572D01*
X76680970Y-101445671D01*
X76670480Y-101467850D01*
X76657868Y-101488893D01*
X76643253Y-101508599D01*
X76626777Y-101526777D01*
X76608599Y-101543253D01*
X76588893Y-101557868D01*
X76567850Y-101570480D01*
X76545671Y-101580970D01*
X76522572Y-101589235D01*
X76498773Y-101595196D01*
X76474505Y-101598796D01*
X76450001Y-101600000D01*
X75549999Y-101600000D01*
X75525495Y-101598796D01*
X75501227Y-101595196D01*
X75477428Y-101589235D01*
X75454329Y-101580970D01*
X75432150Y-101570480D01*
X75411107Y-101557868D01*
X75391401Y-101543253D01*
X75373223Y-101526777D01*
X75356747Y-101508599D01*
X75342132Y-101488893D01*
X75329520Y-101467850D01*
X75319030Y-101445671D01*
X75310765Y-101422572D01*
X75304804Y-101398773D01*
X75301204Y-101374505D01*
X75300000Y-101350001D01*
X75300000Y-100699999D01*
X75301204Y-100675495D01*
X75304804Y-100651227D01*
X75310765Y-100627428D01*
X75319030Y-100604329D01*
X75329520Y-100582150D01*
X75342132Y-100561107D01*
X75356747Y-100541401D01*
X75373223Y-100523223D01*
X75391401Y-100506747D01*
X75411107Y-100492132D01*
X75432150Y-100479520D01*
X75454329Y-100469030D01*
X75477428Y-100460765D01*
X75501227Y-100454804D01*
X75525495Y-100451204D01*
X75549999Y-100450000D01*
X76450001Y-100450000D01*
X76474505Y-100451204D01*
X76474505Y-100451204D01*
G37*
D11*
X76000000Y-101025000D03*
D10*
G36*
X76474505Y-98401204D02*
X76498773Y-98404804D01*
X76522572Y-98410765D01*
X76545671Y-98419030D01*
X76567850Y-98429520D01*
X76588893Y-98442132D01*
X76608599Y-98456747D01*
X76626777Y-98473223D01*
X76643253Y-98491401D01*
X76657868Y-98511107D01*
X76670480Y-98532150D01*
X76680970Y-98554329D01*
X76689235Y-98577428D01*
X76695196Y-98601227D01*
X76698796Y-98625495D01*
X76700000Y-98649999D01*
X76700000Y-99300001D01*
X76698796Y-99324505D01*
X76695196Y-99348773D01*
X76689235Y-99372572D01*
X76680970Y-99395671D01*
X76670480Y-99417850D01*
X76657868Y-99438893D01*
X76643253Y-99458599D01*
X76626777Y-99476777D01*
X76608599Y-99493253D01*
X76588893Y-99507868D01*
X76567850Y-99520480D01*
X76545671Y-99530970D01*
X76522572Y-99539235D01*
X76498773Y-99545196D01*
X76474505Y-99548796D01*
X76450001Y-99550000D01*
X75549999Y-99550000D01*
X75525495Y-99548796D01*
X75501227Y-99545196D01*
X75477428Y-99539235D01*
X75454329Y-99530970D01*
X75432150Y-99520480D01*
X75411107Y-99507868D01*
X75391401Y-99493253D01*
X75373223Y-99476777D01*
X75356747Y-99458599D01*
X75342132Y-99438893D01*
X75329520Y-99417850D01*
X75319030Y-99395671D01*
X75310765Y-99372572D01*
X75304804Y-99348773D01*
X75301204Y-99324505D01*
X75300000Y-99300001D01*
X75300000Y-98649999D01*
X75301204Y-98625495D01*
X75304804Y-98601227D01*
X75310765Y-98577428D01*
X75319030Y-98554329D01*
X75329520Y-98532150D01*
X75342132Y-98511107D01*
X75356747Y-98491401D01*
X75373223Y-98473223D01*
X75391401Y-98456747D01*
X75411107Y-98442132D01*
X75432150Y-98429520D01*
X75454329Y-98419030D01*
X75477428Y-98410765D01*
X75501227Y-98404804D01*
X75525495Y-98401204D01*
X75549999Y-98400000D01*
X76450001Y-98400000D01*
X76474505Y-98401204D01*
X76474505Y-98401204D01*
G37*
D11*
X76000000Y-98975000D03*
G04 #@! TD*
D10*
G04 #@! TO.C,R2*
G36*
X81324505Y-104301204D02*
X81348773Y-104304804D01*
X81372572Y-104310765D01*
X81395671Y-104319030D01*
X81417850Y-104329520D01*
X81438893Y-104342132D01*
X81458599Y-104356747D01*
X81476777Y-104373223D01*
X81493253Y-104391401D01*
X81507868Y-104411107D01*
X81520480Y-104432150D01*
X81530970Y-104454329D01*
X81539235Y-104477428D01*
X81545196Y-104501227D01*
X81548796Y-104525495D01*
X81550000Y-104549999D01*
X81550000Y-105450001D01*
X81548796Y-105474505D01*
X81545196Y-105498773D01*
X81539235Y-105522572D01*
X81530970Y-105545671D01*
X81520480Y-105567850D01*
X81507868Y-105588893D01*
X81493253Y-105608599D01*
X81476777Y-105626777D01*
X81458599Y-105643253D01*
X81438893Y-105657868D01*
X81417850Y-105670480D01*
X81395671Y-105680970D01*
X81372572Y-105689235D01*
X81348773Y-105695196D01*
X81324505Y-105698796D01*
X81300001Y-105700000D01*
X80649999Y-105700000D01*
X80625495Y-105698796D01*
X80601227Y-105695196D01*
X80577428Y-105689235D01*
X80554329Y-105680970D01*
X80532150Y-105670480D01*
X80511107Y-105657868D01*
X80491401Y-105643253D01*
X80473223Y-105626777D01*
X80456747Y-105608599D01*
X80442132Y-105588893D01*
X80429520Y-105567850D01*
X80419030Y-105545671D01*
X80410765Y-105522572D01*
X80404804Y-105498773D01*
X80401204Y-105474505D01*
X80400000Y-105450001D01*
X80400000Y-104549999D01*
X80401204Y-104525495D01*
X80404804Y-104501227D01*
X80410765Y-104477428D01*
X80419030Y-104454329D01*
X80429520Y-104432150D01*
X80442132Y-104411107D01*
X80456747Y-104391401D01*
X80473223Y-104373223D01*
X80491401Y-104356747D01*
X80511107Y-104342132D01*
X80532150Y-104329520D01*
X80554329Y-104319030D01*
X80577428Y-104310765D01*
X80601227Y-104304804D01*
X80625495Y-104301204D01*
X80649999Y-104300000D01*
X81300001Y-104300000D01*
X81324505Y-104301204D01*
X81324505Y-104301204D01*
G37*
D11*
X80975000Y-105000000D03*
D10*
G36*
X83374505Y-104301204D02*
X83398773Y-104304804D01*
X83422572Y-104310765D01*
X83445671Y-104319030D01*
X83467850Y-104329520D01*
X83488893Y-104342132D01*
X83508599Y-104356747D01*
X83526777Y-104373223D01*
X83543253Y-104391401D01*
X83557868Y-104411107D01*
X83570480Y-104432150D01*
X83580970Y-104454329D01*
X83589235Y-104477428D01*
X83595196Y-104501227D01*
X83598796Y-104525495D01*
X83600000Y-104549999D01*
X83600000Y-105450001D01*
X83598796Y-105474505D01*
X83595196Y-105498773D01*
X83589235Y-105522572D01*
X83580970Y-105545671D01*
X83570480Y-105567850D01*
X83557868Y-105588893D01*
X83543253Y-105608599D01*
X83526777Y-105626777D01*
X83508599Y-105643253D01*
X83488893Y-105657868D01*
X83467850Y-105670480D01*
X83445671Y-105680970D01*
X83422572Y-105689235D01*
X83398773Y-105695196D01*
X83374505Y-105698796D01*
X83350001Y-105700000D01*
X82699999Y-105700000D01*
X82675495Y-105698796D01*
X82651227Y-105695196D01*
X82627428Y-105689235D01*
X82604329Y-105680970D01*
X82582150Y-105670480D01*
X82561107Y-105657868D01*
X82541401Y-105643253D01*
X82523223Y-105626777D01*
X82506747Y-105608599D01*
X82492132Y-105588893D01*
X82479520Y-105567850D01*
X82469030Y-105545671D01*
X82460765Y-105522572D01*
X82454804Y-105498773D01*
X82451204Y-105474505D01*
X82450000Y-105450001D01*
X82450000Y-104549999D01*
X82451204Y-104525495D01*
X82454804Y-104501227D01*
X82460765Y-104477428D01*
X82469030Y-104454329D01*
X82479520Y-104432150D01*
X82492132Y-104411107D01*
X82506747Y-104391401D01*
X82523223Y-104373223D01*
X82541401Y-104356747D01*
X82561107Y-104342132D01*
X82582150Y-104329520D01*
X82604329Y-104319030D01*
X82627428Y-104310765D01*
X82651227Y-104304804D01*
X82675495Y-104301204D01*
X82699999Y-104300000D01*
X83350001Y-104300000D01*
X83374505Y-104301204D01*
X83374505Y-104301204D01*
G37*
D11*
X83025000Y-105000000D03*
G04 #@! TD*
D10*
G04 #@! TO.C,R3*
G36*
X83374505Y-101301204D02*
X83398773Y-101304804D01*
X83422572Y-101310765D01*
X83445671Y-101319030D01*
X83467850Y-101329520D01*
X83488893Y-101342132D01*
X83508599Y-101356747D01*
X83526777Y-101373223D01*
X83543253Y-101391401D01*
X83557868Y-101411107D01*
X83570480Y-101432150D01*
X83580970Y-101454329D01*
X83589235Y-101477428D01*
X83595196Y-101501227D01*
X83598796Y-101525495D01*
X83600000Y-101549999D01*
X83600000Y-102450001D01*
X83598796Y-102474505D01*
X83595196Y-102498773D01*
X83589235Y-102522572D01*
X83580970Y-102545671D01*
X83570480Y-102567850D01*
X83557868Y-102588893D01*
X83543253Y-102608599D01*
X83526777Y-102626777D01*
X83508599Y-102643253D01*
X83488893Y-102657868D01*
X83467850Y-102670480D01*
X83445671Y-102680970D01*
X83422572Y-102689235D01*
X83398773Y-102695196D01*
X83374505Y-102698796D01*
X83350001Y-102700000D01*
X82699999Y-102700000D01*
X82675495Y-102698796D01*
X82651227Y-102695196D01*
X82627428Y-102689235D01*
X82604329Y-102680970D01*
X82582150Y-102670480D01*
X82561107Y-102657868D01*
X82541401Y-102643253D01*
X82523223Y-102626777D01*
X82506747Y-102608599D01*
X82492132Y-102588893D01*
X82479520Y-102567850D01*
X82469030Y-102545671D01*
X82460765Y-102522572D01*
X82454804Y-102498773D01*
X82451204Y-102474505D01*
X82450000Y-102450001D01*
X82450000Y-101549999D01*
X82451204Y-101525495D01*
X82454804Y-101501227D01*
X82460765Y-101477428D01*
X82469030Y-101454329D01*
X82479520Y-101432150D01*
X82492132Y-101411107D01*
X82506747Y-101391401D01*
X82523223Y-101373223D01*
X82541401Y-101356747D01*
X82561107Y-101342132D01*
X82582150Y-101329520D01*
X82604329Y-101319030D01*
X82627428Y-101310765D01*
X82651227Y-101304804D01*
X82675495Y-101301204D01*
X82699999Y-101300000D01*
X83350001Y-101300000D01*
X83374505Y-101301204D01*
X83374505Y-101301204D01*
G37*
D11*
X83025000Y-102000000D03*
D10*
G36*
X81324505Y-101301204D02*
X81348773Y-101304804D01*
X81372572Y-101310765D01*
X81395671Y-101319030D01*
X81417850Y-101329520D01*
X81438893Y-101342132D01*
X81458599Y-101356747D01*
X81476777Y-101373223D01*
X81493253Y-101391401D01*
X81507868Y-101411107D01*
X81520480Y-101432150D01*
X81530970Y-101454329D01*
X81539235Y-101477428D01*
X81545196Y-101501227D01*
X81548796Y-101525495D01*
X81550000Y-101549999D01*
X81550000Y-102450001D01*
X81548796Y-102474505D01*
X81545196Y-102498773D01*
X81539235Y-102522572D01*
X81530970Y-102545671D01*
X81520480Y-102567850D01*
X81507868Y-102588893D01*
X81493253Y-102608599D01*
X81476777Y-102626777D01*
X81458599Y-102643253D01*
X81438893Y-102657868D01*
X81417850Y-102670480D01*
X81395671Y-102680970D01*
X81372572Y-102689235D01*
X81348773Y-102695196D01*
X81324505Y-102698796D01*
X81300001Y-102700000D01*
X80649999Y-102700000D01*
X80625495Y-102698796D01*
X80601227Y-102695196D01*
X80577428Y-102689235D01*
X80554329Y-102680970D01*
X80532150Y-102670480D01*
X80511107Y-102657868D01*
X80491401Y-102643253D01*
X80473223Y-102626777D01*
X80456747Y-102608599D01*
X80442132Y-102588893D01*
X80429520Y-102567850D01*
X80419030Y-102545671D01*
X80410765Y-102522572D01*
X80404804Y-102498773D01*
X80401204Y-102474505D01*
X80400000Y-102450001D01*
X80400000Y-101549999D01*
X80401204Y-101525495D01*
X80404804Y-101501227D01*
X80410765Y-101477428D01*
X80419030Y-101454329D01*
X80429520Y-101432150D01*
X80442132Y-101411107D01*
X80456747Y-101391401D01*
X80473223Y-101373223D01*
X80491401Y-101356747D01*
X80511107Y-101342132D01*
X80532150Y-101329520D01*
X80554329Y-101319030D01*
X80577428Y-101310765D01*
X80601227Y-101304804D01*
X80625495Y-101301204D01*
X80649999Y-101300000D01*
X81300001Y-101300000D01*
X81324505Y-101301204D01*
X81324505Y-101301204D01*
G37*
D11*
X80975000Y-102000000D03*
G04 #@! TD*
D12*
G04 #@! TO.C,U1*
X85350000Y-109950000D03*
X85350000Y-109000000D03*
X85350000Y-108050000D03*
X82650000Y-108050000D03*
X82650000Y-109950000D03*
X82650000Y-109000000D03*
G04 #@! TD*
D10*
G04 #@! TO.C,R4*
G36*
X81324505Y-98301204D02*
X81348773Y-98304804D01*
X81372572Y-98310765D01*
X81395671Y-98319030D01*
X81417850Y-98329520D01*
X81438893Y-98342132D01*
X81458599Y-98356747D01*
X81476777Y-98373223D01*
X81493253Y-98391401D01*
X81507868Y-98411107D01*
X81520480Y-98432150D01*
X81530970Y-98454329D01*
X81539235Y-98477428D01*
X81545196Y-98501227D01*
X81548796Y-98525495D01*
X81550000Y-98549999D01*
X81550000Y-99450001D01*
X81548796Y-99474505D01*
X81545196Y-99498773D01*
X81539235Y-99522572D01*
X81530970Y-99545671D01*
X81520480Y-99567850D01*
X81507868Y-99588893D01*
X81493253Y-99608599D01*
X81476777Y-99626777D01*
X81458599Y-99643253D01*
X81438893Y-99657868D01*
X81417850Y-99670480D01*
X81395671Y-99680970D01*
X81372572Y-99689235D01*
X81348773Y-99695196D01*
X81324505Y-99698796D01*
X81300001Y-99700000D01*
X80649999Y-99700000D01*
X80625495Y-99698796D01*
X80601227Y-99695196D01*
X80577428Y-99689235D01*
X80554329Y-99680970D01*
X80532150Y-99670480D01*
X80511107Y-99657868D01*
X80491401Y-99643253D01*
X80473223Y-99626777D01*
X80456747Y-99608599D01*
X80442132Y-99588893D01*
X80429520Y-99567850D01*
X80419030Y-99545671D01*
X80410765Y-99522572D01*
X80404804Y-99498773D01*
X80401204Y-99474505D01*
X80400000Y-99450001D01*
X80400000Y-98549999D01*
X80401204Y-98525495D01*
X80404804Y-98501227D01*
X80410765Y-98477428D01*
X80419030Y-98454329D01*
X80429520Y-98432150D01*
X80442132Y-98411107D01*
X80456747Y-98391401D01*
X80473223Y-98373223D01*
X80491401Y-98356747D01*
X80511107Y-98342132D01*
X80532150Y-98329520D01*
X80554329Y-98319030D01*
X80577428Y-98310765D01*
X80601227Y-98304804D01*
X80625495Y-98301204D01*
X80649999Y-98300000D01*
X81300001Y-98300000D01*
X81324505Y-98301204D01*
X81324505Y-98301204D01*
G37*
D11*
X80975000Y-99000000D03*
D10*
G36*
X83374505Y-98301204D02*
X83398773Y-98304804D01*
X83422572Y-98310765D01*
X83445671Y-98319030D01*
X83467850Y-98329520D01*
X83488893Y-98342132D01*
X83508599Y-98356747D01*
X83526777Y-98373223D01*
X83543253Y-98391401D01*
X83557868Y-98411107D01*
X83570480Y-98432150D01*
X83580970Y-98454329D01*
X83589235Y-98477428D01*
X83595196Y-98501227D01*
X83598796Y-98525495D01*
X83600000Y-98549999D01*
X83600000Y-99450001D01*
X83598796Y-99474505D01*
X83595196Y-99498773D01*
X83589235Y-99522572D01*
X83580970Y-99545671D01*
X83570480Y-99567850D01*
X83557868Y-99588893D01*
X83543253Y-99608599D01*
X83526777Y-99626777D01*
X83508599Y-99643253D01*
X83488893Y-99657868D01*
X83467850Y-99670480D01*
X83445671Y-99680970D01*
X83422572Y-99689235D01*
X83398773Y-99695196D01*
X83374505Y-99698796D01*
X83350001Y-99700000D01*
X82699999Y-99700000D01*
X82675495Y-99698796D01*
X82651227Y-99695196D01*
X82627428Y-99689235D01*
X82604329Y-99680970D01*
X82582150Y-99670480D01*
X82561107Y-99657868D01*
X82541401Y-99643253D01*
X82523223Y-99626777D01*
X82506747Y-99608599D01*
X82492132Y-99588893D01*
X82479520Y-99567850D01*
X82469030Y-99545671D01*
X82460765Y-99522572D01*
X82454804Y-99498773D01*
X82451204Y-99474505D01*
X82450000Y-99450001D01*
X82450000Y-98549999D01*
X82451204Y-98525495D01*
X82454804Y-98501227D01*
X82460765Y-98477428D01*
X82469030Y-98454329D01*
X82479520Y-98432150D01*
X82492132Y-98411107D01*
X82506747Y-98391401D01*
X82523223Y-98373223D01*
X82541401Y-98356747D01*
X82561107Y-98342132D01*
X82582150Y-98329520D01*
X82604329Y-98319030D01*
X82627428Y-98310765D01*
X82651227Y-98304804D01*
X82675495Y-98301204D01*
X82699999Y-98300000D01*
X83350001Y-98300000D01*
X83374505Y-98301204D01*
X83374505Y-98301204D01*
G37*
D11*
X83025000Y-99000000D03*
G04 #@! TD*
M02*
