G04 #@! TF.GenerationSoftware,KiCad,Pcbnew,5.0.2-bee76a0~70~ubuntu16.04.1*
G04 #@! TF.CreationDate,2019-11-30T17:31:12+01:00*
G04 #@! TF.ProjectId,bambule,62616d62-756c-4652-9e6b-696361645f70,rev?*
G04 #@! TF.SameCoordinates,Original*
G04 #@! TF.FileFunction,Copper,L2,Bot*
G04 #@! TF.FilePolarity,Positive*
%FSLAX46Y46*%
G04 Gerber Fmt 4.6, Leading zero omitted, Abs format (unit mm)*
G04 Created by KiCad (PCBNEW 5.0.2-bee76a0~70~ubuntu16.04.1) date Sat 30 Nov 2019 05:31:12 PM CET*
%MOMM*%
%LPD*%
G01*
G04 APERTURE LIST*
G04 #@! TA.AperFunction,ComponentPad*
%ADD10C,5.000000*%
G04 #@! TD*
G04 #@! TA.AperFunction,ComponentPad*
%ADD11C,1.600000*%
G04 #@! TD*
G04 #@! TA.AperFunction,ComponentPad*
%ADD12C,4.500880*%
G04 #@! TD*
G04 #@! TA.AperFunction,ViaPad*
%ADD13C,0.800000*%
G04 #@! TD*
G04 #@! TA.AperFunction,ViaPad*
%ADD14C,1.200000*%
G04 #@! TD*
G04 #@! TA.AperFunction,Conductor*
%ADD15C,0.500000*%
G04 #@! TD*
G04 #@! TA.AperFunction,Conductor*
%ADD16C,0.254000*%
G04 #@! TD*
G04 APERTURE END LIST*
D10*
G04 #@! TO.P,H1,1*
G04 #@! TO.N,/HEATSINK*
X72000000Y-104000000D03*
G04 #@! TD*
G04 #@! TO.P,H2,1*
G04 #@! TO.N,/HEATSINK*
X72000000Y-96000000D03*
G04 #@! TD*
D11*
G04 #@! TO.P,D1,2*
G04 #@! TO.N,/VBUS*
X94000000Y-92500000D03*
G04 #@! TO.P,D1,1*
G04 #@! TO.N,Net-(D1-Pad1)*
X106000000Y-107500000D03*
G04 #@! TD*
D12*
G04 #@! TO.P,J1,1*
G04 #@! TO.N,/VBUS*
X75000000Y-87500000D03*
G04 #@! TD*
G04 #@! TO.P,J2,1*
G04 #@! TO.N,GND*
X75000000Y-112500000D03*
G04 #@! TD*
D13*
G04 #@! TO.N,Net-(R1-Pad1)*
X77000000Y-108500000D03*
X78500000Y-111000000D03*
D14*
G04 #@! TO.N,/HEATSINK*
X90000000Y-80000000D03*
X95000000Y-80000000D03*
X100000000Y-80000000D03*
X105000000Y-80000000D03*
X85000000Y-85000000D03*
X90000000Y-85000000D03*
X95000000Y-85000000D03*
X100000000Y-85000000D03*
X105000000Y-85000000D03*
X110000000Y-85000000D03*
X90000000Y-90000000D03*
X95000000Y-90000000D03*
X100000000Y-90000000D03*
X105000000Y-90000000D03*
X110000000Y-90000000D03*
X115000000Y-90000000D03*
X120000000Y-90000000D03*
X85000000Y-95000000D03*
X90000000Y-95000000D03*
X95000000Y-95000000D03*
X100000000Y-95000000D03*
X105000000Y-95000000D03*
X110000000Y-95000000D03*
X115000000Y-95000000D03*
X120000000Y-95000000D03*
X85000000Y-100000000D03*
X90000000Y-100000000D03*
X95000000Y-100000000D03*
X100000000Y-100000000D03*
X105000000Y-100000000D03*
X110000000Y-100000000D03*
X115000000Y-100000000D03*
X120000000Y-100000000D03*
X85000000Y-105000000D03*
X90000000Y-105000000D03*
X95000000Y-105000000D03*
X100000000Y-105000000D03*
X105000000Y-105000000D03*
X110000000Y-105000000D03*
X115000000Y-105000000D03*
X120000000Y-105000000D03*
X90000000Y-110000000D03*
X95000000Y-110000000D03*
X100000000Y-110000000D03*
X105000000Y-110000000D03*
X110000000Y-110000000D03*
X115000000Y-110000000D03*
X120000000Y-110000000D03*
X85000000Y-115000000D03*
X90000000Y-115000000D03*
X95000000Y-115000000D03*
X100000000Y-115000000D03*
X105000000Y-115000000D03*
X110000000Y-115000000D03*
X115000000Y-115000000D03*
X90000000Y-120000000D03*
X95000000Y-120000000D03*
X100000000Y-120000000D03*
X105000000Y-120000000D03*
X110000000Y-120000000D03*
X115000000Y-85000000D03*
X110000000Y-80000000D03*
G04 #@! TD*
D15*
G04 #@! TO.N,Net-(R1-Pad1)*
X77000000Y-108500000D02*
X78500000Y-110000000D01*
X78500000Y-110000000D02*
X78500000Y-111000000D01*
G04 #@! TD*
D16*
G04 #@! TO.N,/HEATSINK*
G36*
X101553959Y-76186169D02*
X103458805Y-76387504D01*
X105341346Y-76740953D01*
X107189490Y-77244244D01*
X108991313Y-77894133D01*
X110735209Y-78686430D01*
X112409954Y-79616039D01*
X114004740Y-80676958D01*
X115509311Y-81862366D01*
X116913965Y-83164616D01*
X118209660Y-84575332D01*
X119388041Y-86085412D01*
X120441515Y-87685125D01*
X121363312Y-89364195D01*
X122147469Y-91111760D01*
X122788949Y-92916591D01*
X123283619Y-94767053D01*
X123628291Y-96651225D01*
X123820744Y-98556984D01*
X123859737Y-100472030D01*
X123745020Y-102384039D01*
X123477332Y-104280677D01*
X123058395Y-106149754D01*
X122490915Y-107979195D01*
X121778543Y-109757235D01*
X120925862Y-111472427D01*
X119938372Y-113113711D01*
X118822443Y-114670498D01*
X117585251Y-116132780D01*
X116234772Y-117491131D01*
X114779697Y-118736804D01*
X113229415Y-119861765D01*
X111593892Y-120858779D01*
X109883695Y-121721406D01*
X108109827Y-122444097D01*
X106283705Y-123022201D01*
X104417094Y-123451991D01*
X102522034Y-123730696D01*
X100610737Y-123856521D01*
X98695492Y-123828655D01*
X96788664Y-123647281D01*
X94902514Y-123313564D01*
X93049193Y-122829651D01*
X91240675Y-122198671D01*
X89488568Y-121424675D01*
X87804182Y-120512656D01*
X86198374Y-119468495D01*
X84681473Y-118298910D01*
X83263260Y-117011440D01*
X81947888Y-115609068D01*
X81322315Y-114855561D01*
X81320777Y-114853853D01*
X81320447Y-114853320D01*
X81314642Y-114846469D01*
X81219475Y-114735544D01*
X81173402Y-114695177D01*
X81132399Y-114649674D01*
X81125469Y-114643965D01*
X80685581Y-114286115D01*
X80600050Y-114234767D01*
X80515167Y-114182386D01*
X80506914Y-114178853D01*
X80506911Y-114178851D01*
X80506907Y-114178850D01*
X79984269Y-113958846D01*
X79887707Y-113933552D01*
X79791590Y-113907116D01*
X79782677Y-113906040D01*
X79782675Y-113906040D01*
X79219292Y-113841567D01*
X79119559Y-113844390D01*
X79019840Y-113845994D01*
X79010982Y-113847464D01*
X79010980Y-113847464D01*
X78452147Y-113943705D01*
X78357224Y-113974404D01*
X78261954Y-114003934D01*
X78253864Y-114007831D01*
X77762354Y-114248316D01*
X77714026Y-114268802D01*
X75707822Y-115633319D01*
X75340041Y-115813267D01*
X74988675Y-115873778D01*
X74634445Y-115833240D01*
X74305835Y-115694913D01*
X74019515Y-115461990D01*
X73848224Y-115230454D01*
X73790024Y-115121989D01*
X74426050Y-115385440D01*
X75573950Y-115385440D01*
X76634470Y-114946158D01*
X77446158Y-114134470D01*
X77885440Y-113073950D01*
X77885440Y-111926050D01*
X77831064Y-111794775D01*
X77913720Y-111877431D01*
X78294126Y-112035000D01*
X78705874Y-112035000D01*
X79086280Y-111877431D01*
X79377431Y-111586280D01*
X79535000Y-111205874D01*
X79535000Y-110794126D01*
X79385000Y-110431993D01*
X79385000Y-110087159D01*
X79402337Y-109999999D01*
X79385000Y-109912839D01*
X79385000Y-109912835D01*
X79333652Y-109654690D01*
X79242987Y-109519001D01*
X79187424Y-109435845D01*
X79187423Y-109435844D01*
X79138049Y-109361951D01*
X79064156Y-109312577D01*
X78027431Y-108275853D01*
X77877431Y-107913720D01*
X77586280Y-107622569D01*
X77205874Y-107465000D01*
X76794126Y-107465000D01*
X76413720Y-107622569D01*
X76122569Y-107913720D01*
X75965000Y-108294126D01*
X75965000Y-108705874D01*
X76122569Y-109086280D01*
X76413720Y-109377431D01*
X76775853Y-109527431D01*
X77615000Y-110366579D01*
X77615000Y-110431992D01*
X77465000Y-110794126D01*
X77465000Y-110911019D01*
X77446158Y-110865530D01*
X76634470Y-110053842D01*
X75573950Y-109614560D01*
X74426050Y-109614560D01*
X73365530Y-110053842D01*
X72553842Y-110865530D01*
X72156301Y-111825279D01*
X71952486Y-111370007D01*
X71211328Y-109335567D01*
X70617533Y-107253369D01*
X70609414Y-107214561D01*
X104565000Y-107214561D01*
X104565000Y-107785439D01*
X104783466Y-108312862D01*
X105187138Y-108716534D01*
X105714561Y-108935000D01*
X106285439Y-108935000D01*
X106812862Y-108716534D01*
X107216534Y-108312862D01*
X107435000Y-107785439D01*
X107435000Y-107214561D01*
X107216534Y-106687138D01*
X106812862Y-106283466D01*
X106285439Y-106065000D01*
X105714561Y-106065000D01*
X105187138Y-106283466D01*
X104783466Y-106687138D01*
X104565000Y-107214561D01*
X70609414Y-107214561D01*
X70518448Y-106779777D01*
X71377892Y-107135294D01*
X72625072Y-107134705D01*
X73774579Y-106658564D01*
X74056275Y-106235880D01*
X72000000Y-104179605D01*
X71985858Y-104193748D01*
X71806253Y-104014143D01*
X71820395Y-104000000D01*
X72179605Y-104000000D01*
X74235880Y-106056275D01*
X74658564Y-105774579D01*
X75135294Y-104622108D01*
X75134705Y-103374928D01*
X74658564Y-102225421D01*
X74235880Y-101943725D01*
X72179605Y-104000000D01*
X71820395Y-104000000D01*
X71806253Y-103985858D01*
X71985858Y-103806253D01*
X72000000Y-103820395D01*
X74056275Y-101764120D01*
X73774579Y-101341436D01*
X72622108Y-100864706D01*
X71374928Y-100865295D01*
X70225421Y-101341436D01*
X69943726Y-101764118D01*
X69831354Y-101651746D01*
X69800819Y-101682281D01*
X69746788Y-100827510D01*
X69765042Y-98662364D01*
X69793274Y-98310174D01*
X69831354Y-98348254D01*
X69943726Y-98235882D01*
X70225421Y-98658564D01*
X71377892Y-99135294D01*
X72625072Y-99134705D01*
X73774579Y-98658564D01*
X74056275Y-98235880D01*
X72000000Y-96179605D01*
X71985858Y-96193748D01*
X71806253Y-96014143D01*
X71820395Y-96000000D01*
X72179605Y-96000000D01*
X74235880Y-98056275D01*
X74658564Y-97774579D01*
X75135294Y-96622108D01*
X75134705Y-95374928D01*
X74658564Y-94225421D01*
X74235880Y-93943725D01*
X72179605Y-96000000D01*
X71820395Y-96000000D01*
X71806253Y-95985858D01*
X71985858Y-95806253D01*
X72000000Y-95820395D01*
X74056275Y-93764120D01*
X73774579Y-93341436D01*
X72622108Y-92864706D01*
X71374928Y-92865295D01*
X70525014Y-93217341D01*
X70744012Y-92252099D01*
X70755404Y-92214561D01*
X92565000Y-92214561D01*
X92565000Y-92785439D01*
X92783466Y-93312862D01*
X93187138Y-93716534D01*
X93714561Y-93935000D01*
X94285439Y-93935000D01*
X94812862Y-93716534D01*
X95216534Y-93312862D01*
X95435000Y-92785439D01*
X95435000Y-92214561D01*
X95216534Y-91687138D01*
X94812862Y-91283466D01*
X94285439Y-91065000D01*
X93714561Y-91065000D01*
X93187138Y-91283466D01*
X92783466Y-91687138D01*
X92565000Y-92214561D01*
X70755404Y-92214561D01*
X71372833Y-90180201D01*
X72148180Y-88158566D01*
X72148938Y-88156947D01*
X72553842Y-89134470D01*
X73365530Y-89946158D01*
X74426050Y-90385440D01*
X75573950Y-90385440D01*
X76634470Y-89946158D01*
X77446158Y-89134470D01*
X77885440Y-88073950D01*
X77885440Y-86926050D01*
X77446158Y-85865530D01*
X76634470Y-85053842D01*
X75573950Y-84614560D01*
X74426050Y-84614560D01*
X73787771Y-84878944D01*
X73840419Y-84782780D01*
X74088551Y-84469907D01*
X74379597Y-84263964D01*
X74716747Y-84147986D01*
X75072895Y-84131295D01*
X75431617Y-84218192D01*
X75697584Y-84359575D01*
X77714027Y-85731055D01*
X77726489Y-85736337D01*
X77800432Y-85782771D01*
X77856399Y-85807662D01*
X77909045Y-85838963D01*
X77917356Y-85842361D01*
X78443556Y-86053715D01*
X78540480Y-86077403D01*
X78637061Y-86102261D01*
X78645992Y-86103190D01*
X79210361Y-86158364D01*
X79310032Y-86153897D01*
X79409716Y-86150648D01*
X79418541Y-86149033D01*
X79418547Y-86149033D01*
X79418552Y-86149031D01*
X79975719Y-86043587D01*
X80070123Y-86011327D01*
X80164893Y-85980230D01*
X80172915Y-85976201D01*
X80172918Y-85976200D01*
X80172921Y-85976198D01*
X80678098Y-85718615D01*
X80759626Y-85661175D01*
X80841887Y-85604709D01*
X80848457Y-85598589D01*
X81261036Y-85209570D01*
X81262084Y-85208254D01*
X81267070Y-85203817D01*
X81307853Y-85161190D01*
X81312916Y-85155393D01*
X82584658Y-83683808D01*
X83949290Y-82339673D01*
X85417321Y-81109311D01*
X86979301Y-80000646D01*
X88625166Y-79020818D01*
X90344314Y-78176142D01*
X92125648Y-77472069D01*
X93957739Y-76913114D01*
X95828723Y-76502900D01*
X97726602Y-76244054D01*
X99639123Y-76138251D01*
X101553959Y-76186169D01*
X101553959Y-76186169D01*
G37*
X101553959Y-76186169D02*
X103458805Y-76387504D01*
X105341346Y-76740953D01*
X107189490Y-77244244D01*
X108991313Y-77894133D01*
X110735209Y-78686430D01*
X112409954Y-79616039D01*
X114004740Y-80676958D01*
X115509311Y-81862366D01*
X116913965Y-83164616D01*
X118209660Y-84575332D01*
X119388041Y-86085412D01*
X120441515Y-87685125D01*
X121363312Y-89364195D01*
X122147469Y-91111760D01*
X122788949Y-92916591D01*
X123283619Y-94767053D01*
X123628291Y-96651225D01*
X123820744Y-98556984D01*
X123859737Y-100472030D01*
X123745020Y-102384039D01*
X123477332Y-104280677D01*
X123058395Y-106149754D01*
X122490915Y-107979195D01*
X121778543Y-109757235D01*
X120925862Y-111472427D01*
X119938372Y-113113711D01*
X118822443Y-114670498D01*
X117585251Y-116132780D01*
X116234772Y-117491131D01*
X114779697Y-118736804D01*
X113229415Y-119861765D01*
X111593892Y-120858779D01*
X109883695Y-121721406D01*
X108109827Y-122444097D01*
X106283705Y-123022201D01*
X104417094Y-123451991D01*
X102522034Y-123730696D01*
X100610737Y-123856521D01*
X98695492Y-123828655D01*
X96788664Y-123647281D01*
X94902514Y-123313564D01*
X93049193Y-122829651D01*
X91240675Y-122198671D01*
X89488568Y-121424675D01*
X87804182Y-120512656D01*
X86198374Y-119468495D01*
X84681473Y-118298910D01*
X83263260Y-117011440D01*
X81947888Y-115609068D01*
X81322315Y-114855561D01*
X81320777Y-114853853D01*
X81320447Y-114853320D01*
X81314642Y-114846469D01*
X81219475Y-114735544D01*
X81173402Y-114695177D01*
X81132399Y-114649674D01*
X81125469Y-114643965D01*
X80685581Y-114286115D01*
X80600050Y-114234767D01*
X80515167Y-114182386D01*
X80506914Y-114178853D01*
X80506911Y-114178851D01*
X80506907Y-114178850D01*
X79984269Y-113958846D01*
X79887707Y-113933552D01*
X79791590Y-113907116D01*
X79782677Y-113906040D01*
X79782675Y-113906040D01*
X79219292Y-113841567D01*
X79119559Y-113844390D01*
X79019840Y-113845994D01*
X79010982Y-113847464D01*
X79010980Y-113847464D01*
X78452147Y-113943705D01*
X78357224Y-113974404D01*
X78261954Y-114003934D01*
X78253864Y-114007831D01*
X77762354Y-114248316D01*
X77714026Y-114268802D01*
X75707822Y-115633319D01*
X75340041Y-115813267D01*
X74988675Y-115873778D01*
X74634445Y-115833240D01*
X74305835Y-115694913D01*
X74019515Y-115461990D01*
X73848224Y-115230454D01*
X73790024Y-115121989D01*
X74426050Y-115385440D01*
X75573950Y-115385440D01*
X76634470Y-114946158D01*
X77446158Y-114134470D01*
X77885440Y-113073950D01*
X77885440Y-111926050D01*
X77831064Y-111794775D01*
X77913720Y-111877431D01*
X78294126Y-112035000D01*
X78705874Y-112035000D01*
X79086280Y-111877431D01*
X79377431Y-111586280D01*
X79535000Y-111205874D01*
X79535000Y-110794126D01*
X79385000Y-110431993D01*
X79385000Y-110087159D01*
X79402337Y-109999999D01*
X79385000Y-109912839D01*
X79385000Y-109912835D01*
X79333652Y-109654690D01*
X79242987Y-109519001D01*
X79187424Y-109435845D01*
X79187423Y-109435844D01*
X79138049Y-109361951D01*
X79064156Y-109312577D01*
X78027431Y-108275853D01*
X77877431Y-107913720D01*
X77586280Y-107622569D01*
X77205874Y-107465000D01*
X76794126Y-107465000D01*
X76413720Y-107622569D01*
X76122569Y-107913720D01*
X75965000Y-108294126D01*
X75965000Y-108705874D01*
X76122569Y-109086280D01*
X76413720Y-109377431D01*
X76775853Y-109527431D01*
X77615000Y-110366579D01*
X77615000Y-110431992D01*
X77465000Y-110794126D01*
X77465000Y-110911019D01*
X77446158Y-110865530D01*
X76634470Y-110053842D01*
X75573950Y-109614560D01*
X74426050Y-109614560D01*
X73365530Y-110053842D01*
X72553842Y-110865530D01*
X72156301Y-111825279D01*
X71952486Y-111370007D01*
X71211328Y-109335567D01*
X70617533Y-107253369D01*
X70609414Y-107214561D01*
X104565000Y-107214561D01*
X104565000Y-107785439D01*
X104783466Y-108312862D01*
X105187138Y-108716534D01*
X105714561Y-108935000D01*
X106285439Y-108935000D01*
X106812862Y-108716534D01*
X107216534Y-108312862D01*
X107435000Y-107785439D01*
X107435000Y-107214561D01*
X107216534Y-106687138D01*
X106812862Y-106283466D01*
X106285439Y-106065000D01*
X105714561Y-106065000D01*
X105187138Y-106283466D01*
X104783466Y-106687138D01*
X104565000Y-107214561D01*
X70609414Y-107214561D01*
X70518448Y-106779777D01*
X71377892Y-107135294D01*
X72625072Y-107134705D01*
X73774579Y-106658564D01*
X74056275Y-106235880D01*
X72000000Y-104179605D01*
X71985858Y-104193748D01*
X71806253Y-104014143D01*
X71820395Y-104000000D01*
X72179605Y-104000000D01*
X74235880Y-106056275D01*
X74658564Y-105774579D01*
X75135294Y-104622108D01*
X75134705Y-103374928D01*
X74658564Y-102225421D01*
X74235880Y-101943725D01*
X72179605Y-104000000D01*
X71820395Y-104000000D01*
X71806253Y-103985858D01*
X71985858Y-103806253D01*
X72000000Y-103820395D01*
X74056275Y-101764120D01*
X73774579Y-101341436D01*
X72622108Y-100864706D01*
X71374928Y-100865295D01*
X70225421Y-101341436D01*
X69943726Y-101764118D01*
X69831354Y-101651746D01*
X69800819Y-101682281D01*
X69746788Y-100827510D01*
X69765042Y-98662364D01*
X69793274Y-98310174D01*
X69831354Y-98348254D01*
X69943726Y-98235882D01*
X70225421Y-98658564D01*
X71377892Y-99135294D01*
X72625072Y-99134705D01*
X73774579Y-98658564D01*
X74056275Y-98235880D01*
X72000000Y-96179605D01*
X71985858Y-96193748D01*
X71806253Y-96014143D01*
X71820395Y-96000000D01*
X72179605Y-96000000D01*
X74235880Y-98056275D01*
X74658564Y-97774579D01*
X75135294Y-96622108D01*
X75134705Y-95374928D01*
X74658564Y-94225421D01*
X74235880Y-93943725D01*
X72179605Y-96000000D01*
X71820395Y-96000000D01*
X71806253Y-95985858D01*
X71985858Y-95806253D01*
X72000000Y-95820395D01*
X74056275Y-93764120D01*
X73774579Y-93341436D01*
X72622108Y-92864706D01*
X71374928Y-92865295D01*
X70525014Y-93217341D01*
X70744012Y-92252099D01*
X70755404Y-92214561D01*
X92565000Y-92214561D01*
X92565000Y-92785439D01*
X92783466Y-93312862D01*
X93187138Y-93716534D01*
X93714561Y-93935000D01*
X94285439Y-93935000D01*
X94812862Y-93716534D01*
X95216534Y-93312862D01*
X95435000Y-92785439D01*
X95435000Y-92214561D01*
X95216534Y-91687138D01*
X94812862Y-91283466D01*
X94285439Y-91065000D01*
X93714561Y-91065000D01*
X93187138Y-91283466D01*
X92783466Y-91687138D01*
X92565000Y-92214561D01*
X70755404Y-92214561D01*
X71372833Y-90180201D01*
X72148180Y-88158566D01*
X72148938Y-88156947D01*
X72553842Y-89134470D01*
X73365530Y-89946158D01*
X74426050Y-90385440D01*
X75573950Y-90385440D01*
X76634470Y-89946158D01*
X77446158Y-89134470D01*
X77885440Y-88073950D01*
X77885440Y-86926050D01*
X77446158Y-85865530D01*
X76634470Y-85053842D01*
X75573950Y-84614560D01*
X74426050Y-84614560D01*
X73787771Y-84878944D01*
X73840419Y-84782780D01*
X74088551Y-84469907D01*
X74379597Y-84263964D01*
X74716747Y-84147986D01*
X75072895Y-84131295D01*
X75431617Y-84218192D01*
X75697584Y-84359575D01*
X77714027Y-85731055D01*
X77726489Y-85736337D01*
X77800432Y-85782771D01*
X77856399Y-85807662D01*
X77909045Y-85838963D01*
X77917356Y-85842361D01*
X78443556Y-86053715D01*
X78540480Y-86077403D01*
X78637061Y-86102261D01*
X78645992Y-86103190D01*
X79210361Y-86158364D01*
X79310032Y-86153897D01*
X79409716Y-86150648D01*
X79418541Y-86149033D01*
X79418547Y-86149033D01*
X79418552Y-86149031D01*
X79975719Y-86043587D01*
X80070123Y-86011327D01*
X80164893Y-85980230D01*
X80172915Y-85976201D01*
X80172918Y-85976200D01*
X80172921Y-85976198D01*
X80678098Y-85718615D01*
X80759626Y-85661175D01*
X80841887Y-85604709D01*
X80848457Y-85598589D01*
X81261036Y-85209570D01*
X81262084Y-85208254D01*
X81267070Y-85203817D01*
X81307853Y-85161190D01*
X81312916Y-85155393D01*
X82584658Y-83683808D01*
X83949290Y-82339673D01*
X85417321Y-81109311D01*
X86979301Y-80000646D01*
X88625166Y-79020818D01*
X90344314Y-78176142D01*
X92125648Y-77472069D01*
X93957739Y-76913114D01*
X95828723Y-76502900D01*
X97726602Y-76244054D01*
X99639123Y-76138251D01*
X101553959Y-76186169D01*
G04 #@! TD*
M02*
