M48
;DRILL file {KiCad 5.0.2-bee76a0~70~ubuntu16.04.1} date Sat 30 Nov 2019 05:26:34 PM CET
;FORMAT={-:-/ absolute / inch / decimal}
FMAT,2
INCH,TZ
T1C0.0157
T2C0.0315
T3C0.0394
T4C0.0787
T5C0.0984
%
G90
G05
T1
X3.2016Y-4.2126
T2
X3.7008Y-3.6417
X4.1732Y-4.2323
T3
X3.3465Y-3.3465
X3.3465Y-3.7402
X3.3465Y-3.937
X3.3465Y-4.1339
X3.3465Y-4.5276
X3.5433Y-3.1496
X3.5433Y-3.3465
X3.5433Y-3.5433
X3.5433Y-3.7402
X3.5433Y-3.937
X3.5433Y-4.1339
X3.5433Y-4.3307
X3.5433Y-4.5276
X3.5433Y-4.7244
X3.7402Y-3.1496
X3.7402Y-3.3465
X3.7402Y-3.5433
X3.7402Y-3.7402
X3.7402Y-3.937
X3.7402Y-4.1339
X3.7402Y-4.3307
X3.7402Y-4.5276
X3.7402Y-4.7244
X3.937Y-3.1496
X3.937Y-3.3465
X3.937Y-3.5433
X3.937Y-3.7402
X3.937Y-3.937
X3.937Y-4.1339
X3.937Y-4.3307
X3.937Y-4.5276
X3.937Y-4.7244
X4.1339Y-3.1496
X4.1339Y-3.3465
X4.1339Y-3.5433
X4.1339Y-3.7402
X4.1339Y-3.937
X4.1339Y-4.1339
X4.1339Y-4.3307
X4.1339Y-4.5276
X4.1339Y-4.7244
X4.3307Y-3.1496
X4.3307Y-3.3465
X4.3307Y-3.5433
X4.3307Y-3.7402
X4.3307Y-3.937
X4.3307Y-4.1339
X4.3307Y-4.3307
X4.3307Y-4.5276
X4.3307Y-4.7244
X4.5276Y-3.3465
X4.5276Y-3.5433
X4.5276Y-3.7402
X4.5276Y-3.937
X4.5276Y-4.1339
X4.5276Y-4.3307
X4.5276Y-4.5276
X4.7244Y-3.5433
X4.7244Y-3.7402
X4.7244Y-3.937
X4.7244Y-4.1339
X4.7244Y-4.3307
T4
X2.9528Y-3.4449
X2.9528Y-4.4291
T5
X2.8346Y-3.7795
X2.8346Y-4.0945
T0
M30
