G04 #@! TF.GenerationSoftware,KiCad,Pcbnew,5.0.2-bee76a0~70~ubuntu16.04.1*
G04 #@! TF.CreationDate,2019-11-30T17:31:12+01:00*
G04 #@! TF.ProjectId,bambule,62616d62-756c-4652-9e6b-696361645f70,rev?*
G04 #@! TF.SameCoordinates,Original*
G04 #@! TF.FileFunction,Copper,L1,Top*
G04 #@! TF.FilePolarity,Positive*
%FSLAX46Y46*%
G04 Gerber Fmt 4.6, Leading zero omitted, Abs format (unit mm)*
G04 Created by KiCad (PCBNEW 5.0.2-bee76a0~70~ubuntu16.04.1) date Sat 30 Nov 2019 05:31:12 PM CET*
%MOMM*%
%LPD*%
G01*
G04 APERTURE LIST*
G04 #@! TA.AperFunction,ComponentPad*
%ADD10C,5.000000*%
G04 #@! TD*
G04 #@! TA.AperFunction,Conductor*
%ADD11C,0.100000*%
G04 #@! TD*
G04 #@! TA.AperFunction,SMDPad,CuDef*
%ADD12C,1.150000*%
G04 #@! TD*
G04 #@! TA.AperFunction,SMDPad,CuDef*
%ADD13R,1.560000X0.650000*%
G04 #@! TD*
G04 #@! TA.AperFunction,ComponentPad*
%ADD14C,1.600000*%
G04 #@! TD*
G04 #@! TA.AperFunction,ComponentPad*
%ADD15C,4.500880*%
G04 #@! TD*
G04 #@! TA.AperFunction,ViaPad*
%ADD16C,0.800000*%
G04 #@! TD*
G04 #@! TA.AperFunction,ViaPad*
%ADD17C,1.200000*%
G04 #@! TD*
G04 #@! TA.AperFunction,Conductor*
%ADD18C,0.500000*%
G04 #@! TD*
G04 #@! TA.AperFunction,Conductor*
%ADD19C,0.254000*%
G04 #@! TD*
G04 APERTURE END LIST*
D10*
G04 #@! TO.P,H1,1*
G04 #@! TO.N,/HEATSINK*
X72000000Y-104000000D03*
G04 #@! TD*
G04 #@! TO.P,H2,1*
G04 #@! TO.N,/HEATSINK*
X72000000Y-96000000D03*
G04 #@! TD*
D11*
G04 #@! TO.N,Net-(R1-Pad1)*
G04 #@! TO.C,R1*
G36*
X76474505Y-100451204D02*
X76498773Y-100454804D01*
X76522572Y-100460765D01*
X76545671Y-100469030D01*
X76567850Y-100479520D01*
X76588893Y-100492132D01*
X76608599Y-100506747D01*
X76626777Y-100523223D01*
X76643253Y-100541401D01*
X76657868Y-100561107D01*
X76670480Y-100582150D01*
X76680970Y-100604329D01*
X76689235Y-100627428D01*
X76695196Y-100651227D01*
X76698796Y-100675495D01*
X76700000Y-100699999D01*
X76700000Y-101350001D01*
X76698796Y-101374505D01*
X76695196Y-101398773D01*
X76689235Y-101422572D01*
X76680970Y-101445671D01*
X76670480Y-101467850D01*
X76657868Y-101488893D01*
X76643253Y-101508599D01*
X76626777Y-101526777D01*
X76608599Y-101543253D01*
X76588893Y-101557868D01*
X76567850Y-101570480D01*
X76545671Y-101580970D01*
X76522572Y-101589235D01*
X76498773Y-101595196D01*
X76474505Y-101598796D01*
X76450001Y-101600000D01*
X75549999Y-101600000D01*
X75525495Y-101598796D01*
X75501227Y-101595196D01*
X75477428Y-101589235D01*
X75454329Y-101580970D01*
X75432150Y-101570480D01*
X75411107Y-101557868D01*
X75391401Y-101543253D01*
X75373223Y-101526777D01*
X75356747Y-101508599D01*
X75342132Y-101488893D01*
X75329520Y-101467850D01*
X75319030Y-101445671D01*
X75310765Y-101422572D01*
X75304804Y-101398773D01*
X75301204Y-101374505D01*
X75300000Y-101350001D01*
X75300000Y-100699999D01*
X75301204Y-100675495D01*
X75304804Y-100651227D01*
X75310765Y-100627428D01*
X75319030Y-100604329D01*
X75329520Y-100582150D01*
X75342132Y-100561107D01*
X75356747Y-100541401D01*
X75373223Y-100523223D01*
X75391401Y-100506747D01*
X75411107Y-100492132D01*
X75432150Y-100479520D01*
X75454329Y-100469030D01*
X75477428Y-100460765D01*
X75501227Y-100454804D01*
X75525495Y-100451204D01*
X75549999Y-100450000D01*
X76450001Y-100450000D01*
X76474505Y-100451204D01*
X76474505Y-100451204D01*
G37*
D12*
G04 #@! TD*
G04 #@! TO.P,R1,1*
G04 #@! TO.N,Net-(R1-Pad1)*
X76000000Y-101025000D03*
D11*
G04 #@! TO.N,/VBUS*
G04 #@! TO.C,R1*
G36*
X76474505Y-98401204D02*
X76498773Y-98404804D01*
X76522572Y-98410765D01*
X76545671Y-98419030D01*
X76567850Y-98429520D01*
X76588893Y-98442132D01*
X76608599Y-98456747D01*
X76626777Y-98473223D01*
X76643253Y-98491401D01*
X76657868Y-98511107D01*
X76670480Y-98532150D01*
X76680970Y-98554329D01*
X76689235Y-98577428D01*
X76695196Y-98601227D01*
X76698796Y-98625495D01*
X76700000Y-98649999D01*
X76700000Y-99300001D01*
X76698796Y-99324505D01*
X76695196Y-99348773D01*
X76689235Y-99372572D01*
X76680970Y-99395671D01*
X76670480Y-99417850D01*
X76657868Y-99438893D01*
X76643253Y-99458599D01*
X76626777Y-99476777D01*
X76608599Y-99493253D01*
X76588893Y-99507868D01*
X76567850Y-99520480D01*
X76545671Y-99530970D01*
X76522572Y-99539235D01*
X76498773Y-99545196D01*
X76474505Y-99548796D01*
X76450001Y-99550000D01*
X75549999Y-99550000D01*
X75525495Y-99548796D01*
X75501227Y-99545196D01*
X75477428Y-99539235D01*
X75454329Y-99530970D01*
X75432150Y-99520480D01*
X75411107Y-99507868D01*
X75391401Y-99493253D01*
X75373223Y-99476777D01*
X75356747Y-99458599D01*
X75342132Y-99438893D01*
X75329520Y-99417850D01*
X75319030Y-99395671D01*
X75310765Y-99372572D01*
X75304804Y-99348773D01*
X75301204Y-99324505D01*
X75300000Y-99300001D01*
X75300000Y-98649999D01*
X75301204Y-98625495D01*
X75304804Y-98601227D01*
X75310765Y-98577428D01*
X75319030Y-98554329D01*
X75329520Y-98532150D01*
X75342132Y-98511107D01*
X75356747Y-98491401D01*
X75373223Y-98473223D01*
X75391401Y-98456747D01*
X75411107Y-98442132D01*
X75432150Y-98429520D01*
X75454329Y-98419030D01*
X75477428Y-98410765D01*
X75501227Y-98404804D01*
X75525495Y-98401204D01*
X75549999Y-98400000D01*
X76450001Y-98400000D01*
X76474505Y-98401204D01*
X76474505Y-98401204D01*
G37*
D12*
G04 #@! TD*
G04 #@! TO.P,R1,2*
G04 #@! TO.N,/VBUS*
X76000000Y-98975000D03*
D11*
G04 #@! TO.N,GND*
G04 #@! TO.C,R2*
G36*
X81324505Y-104301204D02*
X81348773Y-104304804D01*
X81372572Y-104310765D01*
X81395671Y-104319030D01*
X81417850Y-104329520D01*
X81438893Y-104342132D01*
X81458599Y-104356747D01*
X81476777Y-104373223D01*
X81493253Y-104391401D01*
X81507868Y-104411107D01*
X81520480Y-104432150D01*
X81530970Y-104454329D01*
X81539235Y-104477428D01*
X81545196Y-104501227D01*
X81548796Y-104525495D01*
X81550000Y-104549999D01*
X81550000Y-105450001D01*
X81548796Y-105474505D01*
X81545196Y-105498773D01*
X81539235Y-105522572D01*
X81530970Y-105545671D01*
X81520480Y-105567850D01*
X81507868Y-105588893D01*
X81493253Y-105608599D01*
X81476777Y-105626777D01*
X81458599Y-105643253D01*
X81438893Y-105657868D01*
X81417850Y-105670480D01*
X81395671Y-105680970D01*
X81372572Y-105689235D01*
X81348773Y-105695196D01*
X81324505Y-105698796D01*
X81300001Y-105700000D01*
X80649999Y-105700000D01*
X80625495Y-105698796D01*
X80601227Y-105695196D01*
X80577428Y-105689235D01*
X80554329Y-105680970D01*
X80532150Y-105670480D01*
X80511107Y-105657868D01*
X80491401Y-105643253D01*
X80473223Y-105626777D01*
X80456747Y-105608599D01*
X80442132Y-105588893D01*
X80429520Y-105567850D01*
X80419030Y-105545671D01*
X80410765Y-105522572D01*
X80404804Y-105498773D01*
X80401204Y-105474505D01*
X80400000Y-105450001D01*
X80400000Y-104549999D01*
X80401204Y-104525495D01*
X80404804Y-104501227D01*
X80410765Y-104477428D01*
X80419030Y-104454329D01*
X80429520Y-104432150D01*
X80442132Y-104411107D01*
X80456747Y-104391401D01*
X80473223Y-104373223D01*
X80491401Y-104356747D01*
X80511107Y-104342132D01*
X80532150Y-104329520D01*
X80554329Y-104319030D01*
X80577428Y-104310765D01*
X80601227Y-104304804D01*
X80625495Y-104301204D01*
X80649999Y-104300000D01*
X81300001Y-104300000D01*
X81324505Y-104301204D01*
X81324505Y-104301204D01*
G37*
D12*
G04 #@! TD*
G04 #@! TO.P,R2,1*
G04 #@! TO.N,GND*
X80975000Y-105000000D03*
D11*
G04 #@! TO.N,Net-(R2-Pad2)*
G04 #@! TO.C,R2*
G36*
X83374505Y-104301204D02*
X83398773Y-104304804D01*
X83422572Y-104310765D01*
X83445671Y-104319030D01*
X83467850Y-104329520D01*
X83488893Y-104342132D01*
X83508599Y-104356747D01*
X83526777Y-104373223D01*
X83543253Y-104391401D01*
X83557868Y-104411107D01*
X83570480Y-104432150D01*
X83580970Y-104454329D01*
X83589235Y-104477428D01*
X83595196Y-104501227D01*
X83598796Y-104525495D01*
X83600000Y-104549999D01*
X83600000Y-105450001D01*
X83598796Y-105474505D01*
X83595196Y-105498773D01*
X83589235Y-105522572D01*
X83580970Y-105545671D01*
X83570480Y-105567850D01*
X83557868Y-105588893D01*
X83543253Y-105608599D01*
X83526777Y-105626777D01*
X83508599Y-105643253D01*
X83488893Y-105657868D01*
X83467850Y-105670480D01*
X83445671Y-105680970D01*
X83422572Y-105689235D01*
X83398773Y-105695196D01*
X83374505Y-105698796D01*
X83350001Y-105700000D01*
X82699999Y-105700000D01*
X82675495Y-105698796D01*
X82651227Y-105695196D01*
X82627428Y-105689235D01*
X82604329Y-105680970D01*
X82582150Y-105670480D01*
X82561107Y-105657868D01*
X82541401Y-105643253D01*
X82523223Y-105626777D01*
X82506747Y-105608599D01*
X82492132Y-105588893D01*
X82479520Y-105567850D01*
X82469030Y-105545671D01*
X82460765Y-105522572D01*
X82454804Y-105498773D01*
X82451204Y-105474505D01*
X82450000Y-105450001D01*
X82450000Y-104549999D01*
X82451204Y-104525495D01*
X82454804Y-104501227D01*
X82460765Y-104477428D01*
X82469030Y-104454329D01*
X82479520Y-104432150D01*
X82492132Y-104411107D01*
X82506747Y-104391401D01*
X82523223Y-104373223D01*
X82541401Y-104356747D01*
X82561107Y-104342132D01*
X82582150Y-104329520D01*
X82604329Y-104319030D01*
X82627428Y-104310765D01*
X82651227Y-104304804D01*
X82675495Y-104301204D01*
X82699999Y-104300000D01*
X83350001Y-104300000D01*
X83374505Y-104301204D01*
X83374505Y-104301204D01*
G37*
D12*
G04 #@! TD*
G04 #@! TO.P,R2,2*
G04 #@! TO.N,Net-(R2-Pad2)*
X83025000Y-105000000D03*
D11*
G04 #@! TO.N,Net-(R2-Pad2)*
G04 #@! TO.C,R3*
G36*
X83374505Y-101301204D02*
X83398773Y-101304804D01*
X83422572Y-101310765D01*
X83445671Y-101319030D01*
X83467850Y-101329520D01*
X83488893Y-101342132D01*
X83508599Y-101356747D01*
X83526777Y-101373223D01*
X83543253Y-101391401D01*
X83557868Y-101411107D01*
X83570480Y-101432150D01*
X83580970Y-101454329D01*
X83589235Y-101477428D01*
X83595196Y-101501227D01*
X83598796Y-101525495D01*
X83600000Y-101549999D01*
X83600000Y-102450001D01*
X83598796Y-102474505D01*
X83595196Y-102498773D01*
X83589235Y-102522572D01*
X83580970Y-102545671D01*
X83570480Y-102567850D01*
X83557868Y-102588893D01*
X83543253Y-102608599D01*
X83526777Y-102626777D01*
X83508599Y-102643253D01*
X83488893Y-102657868D01*
X83467850Y-102670480D01*
X83445671Y-102680970D01*
X83422572Y-102689235D01*
X83398773Y-102695196D01*
X83374505Y-102698796D01*
X83350001Y-102700000D01*
X82699999Y-102700000D01*
X82675495Y-102698796D01*
X82651227Y-102695196D01*
X82627428Y-102689235D01*
X82604329Y-102680970D01*
X82582150Y-102670480D01*
X82561107Y-102657868D01*
X82541401Y-102643253D01*
X82523223Y-102626777D01*
X82506747Y-102608599D01*
X82492132Y-102588893D01*
X82479520Y-102567850D01*
X82469030Y-102545671D01*
X82460765Y-102522572D01*
X82454804Y-102498773D01*
X82451204Y-102474505D01*
X82450000Y-102450001D01*
X82450000Y-101549999D01*
X82451204Y-101525495D01*
X82454804Y-101501227D01*
X82460765Y-101477428D01*
X82469030Y-101454329D01*
X82479520Y-101432150D01*
X82492132Y-101411107D01*
X82506747Y-101391401D01*
X82523223Y-101373223D01*
X82541401Y-101356747D01*
X82561107Y-101342132D01*
X82582150Y-101329520D01*
X82604329Y-101319030D01*
X82627428Y-101310765D01*
X82651227Y-101304804D01*
X82675495Y-101301204D01*
X82699999Y-101300000D01*
X83350001Y-101300000D01*
X83374505Y-101301204D01*
X83374505Y-101301204D01*
G37*
D12*
G04 #@! TD*
G04 #@! TO.P,R3,2*
G04 #@! TO.N,Net-(R2-Pad2)*
X83025000Y-102000000D03*
D11*
G04 #@! TO.N,GND*
G04 #@! TO.C,R3*
G36*
X81324505Y-101301204D02*
X81348773Y-101304804D01*
X81372572Y-101310765D01*
X81395671Y-101319030D01*
X81417850Y-101329520D01*
X81438893Y-101342132D01*
X81458599Y-101356747D01*
X81476777Y-101373223D01*
X81493253Y-101391401D01*
X81507868Y-101411107D01*
X81520480Y-101432150D01*
X81530970Y-101454329D01*
X81539235Y-101477428D01*
X81545196Y-101501227D01*
X81548796Y-101525495D01*
X81550000Y-101549999D01*
X81550000Y-102450001D01*
X81548796Y-102474505D01*
X81545196Y-102498773D01*
X81539235Y-102522572D01*
X81530970Y-102545671D01*
X81520480Y-102567850D01*
X81507868Y-102588893D01*
X81493253Y-102608599D01*
X81476777Y-102626777D01*
X81458599Y-102643253D01*
X81438893Y-102657868D01*
X81417850Y-102670480D01*
X81395671Y-102680970D01*
X81372572Y-102689235D01*
X81348773Y-102695196D01*
X81324505Y-102698796D01*
X81300001Y-102700000D01*
X80649999Y-102700000D01*
X80625495Y-102698796D01*
X80601227Y-102695196D01*
X80577428Y-102689235D01*
X80554329Y-102680970D01*
X80532150Y-102670480D01*
X80511107Y-102657868D01*
X80491401Y-102643253D01*
X80473223Y-102626777D01*
X80456747Y-102608599D01*
X80442132Y-102588893D01*
X80429520Y-102567850D01*
X80419030Y-102545671D01*
X80410765Y-102522572D01*
X80404804Y-102498773D01*
X80401204Y-102474505D01*
X80400000Y-102450001D01*
X80400000Y-101549999D01*
X80401204Y-101525495D01*
X80404804Y-101501227D01*
X80410765Y-101477428D01*
X80419030Y-101454329D01*
X80429520Y-101432150D01*
X80442132Y-101411107D01*
X80456747Y-101391401D01*
X80473223Y-101373223D01*
X80491401Y-101356747D01*
X80511107Y-101342132D01*
X80532150Y-101329520D01*
X80554329Y-101319030D01*
X80577428Y-101310765D01*
X80601227Y-101304804D01*
X80625495Y-101301204D01*
X80649999Y-101300000D01*
X81300001Y-101300000D01*
X81324505Y-101301204D01*
X81324505Y-101301204D01*
G37*
D12*
G04 #@! TD*
G04 #@! TO.P,R3,1*
G04 #@! TO.N,GND*
X80975000Y-102000000D03*
D13*
G04 #@! TO.P,U1,1*
G04 #@! TO.N,Net-(R1-Pad1)*
X85350000Y-109950000D03*
G04 #@! TO.P,U1,2*
G04 #@! TO.N,Net-(R2-Pad2)*
X85350000Y-109000000D03*
G04 #@! TO.P,U1,3*
G04 #@! TO.N,Net-(D1-Pad1)*
X85350000Y-108050000D03*
G04 #@! TO.P,U1,4*
G04 #@! TO.N,Net-(R2-Pad2)*
X82650000Y-108050000D03*
G04 #@! TO.P,U1,6*
G04 #@! TO.N,GND*
X82650000Y-109950000D03*
G04 #@! TO.P,U1,5*
G04 #@! TO.N,N/C*
X82650000Y-109000000D03*
G04 #@! TD*
D14*
G04 #@! TO.P,D1,2*
G04 #@! TO.N,/VBUS*
X94000000Y-92500000D03*
G04 #@! TO.P,D1,1*
G04 #@! TO.N,Net-(D1-Pad1)*
X106000000Y-107500000D03*
G04 #@! TD*
D15*
G04 #@! TO.P,J1,1*
G04 #@! TO.N,/VBUS*
X75000000Y-87500000D03*
G04 #@! TD*
G04 #@! TO.P,J2,1*
G04 #@! TO.N,GND*
X75000000Y-112500000D03*
G04 #@! TD*
D11*
G04 #@! TO.N,GND*
G04 #@! TO.C,R4*
G36*
X81324505Y-98301204D02*
X81348773Y-98304804D01*
X81372572Y-98310765D01*
X81395671Y-98319030D01*
X81417850Y-98329520D01*
X81438893Y-98342132D01*
X81458599Y-98356747D01*
X81476777Y-98373223D01*
X81493253Y-98391401D01*
X81507868Y-98411107D01*
X81520480Y-98432150D01*
X81530970Y-98454329D01*
X81539235Y-98477428D01*
X81545196Y-98501227D01*
X81548796Y-98525495D01*
X81550000Y-98549999D01*
X81550000Y-99450001D01*
X81548796Y-99474505D01*
X81545196Y-99498773D01*
X81539235Y-99522572D01*
X81530970Y-99545671D01*
X81520480Y-99567850D01*
X81507868Y-99588893D01*
X81493253Y-99608599D01*
X81476777Y-99626777D01*
X81458599Y-99643253D01*
X81438893Y-99657868D01*
X81417850Y-99670480D01*
X81395671Y-99680970D01*
X81372572Y-99689235D01*
X81348773Y-99695196D01*
X81324505Y-99698796D01*
X81300001Y-99700000D01*
X80649999Y-99700000D01*
X80625495Y-99698796D01*
X80601227Y-99695196D01*
X80577428Y-99689235D01*
X80554329Y-99680970D01*
X80532150Y-99670480D01*
X80511107Y-99657868D01*
X80491401Y-99643253D01*
X80473223Y-99626777D01*
X80456747Y-99608599D01*
X80442132Y-99588893D01*
X80429520Y-99567850D01*
X80419030Y-99545671D01*
X80410765Y-99522572D01*
X80404804Y-99498773D01*
X80401204Y-99474505D01*
X80400000Y-99450001D01*
X80400000Y-98549999D01*
X80401204Y-98525495D01*
X80404804Y-98501227D01*
X80410765Y-98477428D01*
X80419030Y-98454329D01*
X80429520Y-98432150D01*
X80442132Y-98411107D01*
X80456747Y-98391401D01*
X80473223Y-98373223D01*
X80491401Y-98356747D01*
X80511107Y-98342132D01*
X80532150Y-98329520D01*
X80554329Y-98319030D01*
X80577428Y-98310765D01*
X80601227Y-98304804D01*
X80625495Y-98301204D01*
X80649999Y-98300000D01*
X81300001Y-98300000D01*
X81324505Y-98301204D01*
X81324505Y-98301204D01*
G37*
D12*
G04 #@! TD*
G04 #@! TO.P,R4,1*
G04 #@! TO.N,GND*
X80975000Y-99000000D03*
D11*
G04 #@! TO.N,Net-(R2-Pad2)*
G04 #@! TO.C,R4*
G36*
X83374505Y-98301204D02*
X83398773Y-98304804D01*
X83422572Y-98310765D01*
X83445671Y-98319030D01*
X83467850Y-98329520D01*
X83488893Y-98342132D01*
X83508599Y-98356747D01*
X83526777Y-98373223D01*
X83543253Y-98391401D01*
X83557868Y-98411107D01*
X83570480Y-98432150D01*
X83580970Y-98454329D01*
X83589235Y-98477428D01*
X83595196Y-98501227D01*
X83598796Y-98525495D01*
X83600000Y-98549999D01*
X83600000Y-99450001D01*
X83598796Y-99474505D01*
X83595196Y-99498773D01*
X83589235Y-99522572D01*
X83580970Y-99545671D01*
X83570480Y-99567850D01*
X83557868Y-99588893D01*
X83543253Y-99608599D01*
X83526777Y-99626777D01*
X83508599Y-99643253D01*
X83488893Y-99657868D01*
X83467850Y-99670480D01*
X83445671Y-99680970D01*
X83422572Y-99689235D01*
X83398773Y-99695196D01*
X83374505Y-99698796D01*
X83350001Y-99700000D01*
X82699999Y-99700000D01*
X82675495Y-99698796D01*
X82651227Y-99695196D01*
X82627428Y-99689235D01*
X82604329Y-99680970D01*
X82582150Y-99670480D01*
X82561107Y-99657868D01*
X82541401Y-99643253D01*
X82523223Y-99626777D01*
X82506747Y-99608599D01*
X82492132Y-99588893D01*
X82479520Y-99567850D01*
X82469030Y-99545671D01*
X82460765Y-99522572D01*
X82454804Y-99498773D01*
X82451204Y-99474505D01*
X82450000Y-99450001D01*
X82450000Y-98549999D01*
X82451204Y-98525495D01*
X82454804Y-98501227D01*
X82460765Y-98477428D01*
X82469030Y-98454329D01*
X82479520Y-98432150D01*
X82492132Y-98411107D01*
X82506747Y-98391401D01*
X82523223Y-98373223D01*
X82541401Y-98356747D01*
X82561107Y-98342132D01*
X82582150Y-98329520D01*
X82604329Y-98319030D01*
X82627428Y-98310765D01*
X82651227Y-98304804D01*
X82675495Y-98301204D01*
X82699999Y-98300000D01*
X83350001Y-98300000D01*
X83374505Y-98301204D01*
X83374505Y-98301204D01*
G37*
D12*
G04 #@! TD*
G04 #@! TO.P,R4,2*
G04 #@! TO.N,Net-(R2-Pad2)*
X83025000Y-99000000D03*
D16*
G04 #@! TO.N,Net-(R1-Pad1)*
X77000000Y-108500000D03*
X78500000Y-111000000D03*
D17*
G04 #@! TO.N,/HEATSINK*
X90000000Y-80000000D03*
X95000000Y-80000000D03*
X100000000Y-80000000D03*
X105000000Y-80000000D03*
X85000000Y-85000000D03*
X90000000Y-85000000D03*
X95000000Y-85000000D03*
X100000000Y-85000000D03*
X105000000Y-85000000D03*
X110000000Y-85000000D03*
X90000000Y-90000000D03*
X95000000Y-90000000D03*
X100000000Y-90000000D03*
X105000000Y-90000000D03*
X110000000Y-90000000D03*
X115000000Y-90000000D03*
X120000000Y-90000000D03*
X85000000Y-95000000D03*
X90000000Y-95000000D03*
X95000000Y-95000000D03*
X100000000Y-95000000D03*
X105000000Y-95000000D03*
X110000000Y-95000000D03*
X115000000Y-95000000D03*
X120000000Y-95000000D03*
X85000000Y-100000000D03*
X90000000Y-100000000D03*
X95000000Y-100000000D03*
X100000000Y-100000000D03*
X105000000Y-100000000D03*
X110000000Y-100000000D03*
X115000000Y-100000000D03*
X120000000Y-100000000D03*
X85000000Y-105000000D03*
X90000000Y-105000000D03*
X95000000Y-105000000D03*
X100000000Y-105000000D03*
X105000000Y-105000000D03*
X110000000Y-105000000D03*
X115000000Y-105000000D03*
X120000000Y-105000000D03*
X90000000Y-110000000D03*
X95000000Y-110000000D03*
X100000000Y-110000000D03*
X105000000Y-110000000D03*
X110000000Y-110000000D03*
X115000000Y-110000000D03*
X120000000Y-110000000D03*
X85000000Y-115000000D03*
X90000000Y-115000000D03*
X95000000Y-115000000D03*
X100000000Y-115000000D03*
X105000000Y-115000000D03*
X110000000Y-115000000D03*
X115000000Y-115000000D03*
X90000000Y-120000000D03*
X95000000Y-120000000D03*
X100000000Y-120000000D03*
X105000000Y-120000000D03*
X110000000Y-120000000D03*
X115000000Y-85000000D03*
X110000000Y-80000000D03*
G04 #@! TD*
D18*
G04 #@! TO.N,/VBUS*
X76000000Y-88500000D02*
X75000000Y-87500000D01*
X94000000Y-92500000D02*
X76000000Y-92500000D01*
X76000000Y-98975000D02*
X76000000Y-92500000D01*
X76000000Y-92500000D02*
X76000000Y-88500000D01*
G04 #@! TO.N,Net-(D1-Pad1)*
X85900000Y-107500000D02*
X85350000Y-108050000D01*
X106000000Y-107500000D02*
X85900000Y-107500000D01*
G04 #@! TO.N,GND*
X80975000Y-99000000D02*
X80975000Y-102000000D01*
X80975000Y-102000000D02*
X80975000Y-105000000D01*
X81429999Y-109875001D02*
X81319999Y-109765001D01*
X81319999Y-107000000D02*
X81319999Y-106144999D01*
X81319999Y-109765001D02*
X81319999Y-107000000D01*
X80975000Y-105800000D02*
X80975000Y-105000000D01*
X82650000Y-109950000D02*
X82575001Y-109875001D01*
X82575001Y-109875001D02*
X81429999Y-109875001D01*
X81319999Y-106144999D02*
X80975000Y-105800000D01*
X77624999Y-109875001D02*
X75000000Y-112500000D01*
X81429999Y-109875001D02*
X77624999Y-109875001D01*
G04 #@! TO.N,Net-(R1-Pad1)*
X76000000Y-101025000D02*
X76000000Y-107500000D01*
X76000000Y-107500000D02*
X77000000Y-108500000D01*
X85350000Y-110775000D02*
X85350000Y-109950000D01*
X85125000Y-111000000D02*
X85350000Y-110775000D01*
X78500000Y-111000000D02*
X85125000Y-111000000D01*
G04 #@! TO.N,Net-(R2-Pad2)*
X83025000Y-99000000D02*
X83025000Y-102000000D01*
X83025000Y-102000000D02*
X83025000Y-105000000D01*
X83025000Y-107675000D02*
X82650000Y-108050000D01*
X83025000Y-105000000D02*
X83025000Y-107675000D01*
X84019999Y-108139999D02*
X83930000Y-108050000D01*
X84129999Y-108925001D02*
X84019999Y-108815001D01*
X85275001Y-108925001D02*
X84129999Y-108925001D01*
X85350000Y-109000000D02*
X85275001Y-108925001D01*
X84019999Y-108815001D02*
X84019999Y-108139999D01*
X83930000Y-108050000D02*
X82650000Y-108050000D01*
G04 #@! TD*
D19*
G04 #@! TO.N,/HEATSINK*
G36*
X101553959Y-76186169D02*
X103458805Y-76387504D01*
X105341346Y-76740953D01*
X107189490Y-77244244D01*
X108991313Y-77894133D01*
X110735209Y-78686430D01*
X112409954Y-79616039D01*
X114004740Y-80676958D01*
X115509311Y-81862366D01*
X116913965Y-83164616D01*
X118209660Y-84575332D01*
X119388041Y-86085412D01*
X120441515Y-87685125D01*
X121363312Y-89364195D01*
X122147469Y-91111760D01*
X122788949Y-92916591D01*
X123283619Y-94767053D01*
X123628291Y-96651225D01*
X123820744Y-98556984D01*
X123859737Y-100472030D01*
X123745020Y-102384039D01*
X123477332Y-104280677D01*
X123058395Y-106149754D01*
X122490915Y-107979195D01*
X121778543Y-109757235D01*
X120925862Y-111472427D01*
X119938372Y-113113711D01*
X118822443Y-114670498D01*
X117585251Y-116132780D01*
X116234772Y-117491131D01*
X114779697Y-118736804D01*
X113229415Y-119861765D01*
X111593892Y-120858779D01*
X109883695Y-121721406D01*
X108109827Y-122444097D01*
X106283705Y-123022201D01*
X104417094Y-123451991D01*
X102522034Y-123730696D01*
X100610737Y-123856521D01*
X98695492Y-123828655D01*
X96788664Y-123647281D01*
X94902514Y-123313564D01*
X93049193Y-122829651D01*
X91240675Y-122198671D01*
X89488568Y-121424675D01*
X87804182Y-120512656D01*
X86198374Y-119468495D01*
X84681473Y-118298910D01*
X83263260Y-117011440D01*
X81947888Y-115609068D01*
X81322315Y-114855561D01*
X81320777Y-114853853D01*
X81320447Y-114853320D01*
X81314642Y-114846469D01*
X81219475Y-114735544D01*
X81173402Y-114695177D01*
X81132399Y-114649674D01*
X81125469Y-114643965D01*
X80685581Y-114286115D01*
X80600050Y-114234767D01*
X80515167Y-114182386D01*
X80506914Y-114178853D01*
X80506911Y-114178851D01*
X80506907Y-114178850D01*
X79984269Y-113958846D01*
X79887707Y-113933552D01*
X79791590Y-113907116D01*
X79782677Y-113906040D01*
X79782675Y-113906040D01*
X79219292Y-113841567D01*
X79119559Y-113844390D01*
X79019840Y-113845994D01*
X79010982Y-113847464D01*
X79010980Y-113847464D01*
X78452147Y-113943705D01*
X78357224Y-113974404D01*
X78261954Y-114003934D01*
X78253864Y-114007831D01*
X77762354Y-114248316D01*
X77714026Y-114268802D01*
X75707822Y-115633319D01*
X75340041Y-115813267D01*
X74988675Y-115873778D01*
X74634445Y-115833240D01*
X74305835Y-115694913D01*
X74019515Y-115461990D01*
X73848224Y-115230454D01*
X73790024Y-115121989D01*
X74426050Y-115385440D01*
X75573950Y-115385440D01*
X76634470Y-114946158D01*
X77446158Y-114134470D01*
X77885440Y-113073950D01*
X77885440Y-111926050D01*
X77831064Y-111794775D01*
X77913720Y-111877431D01*
X78294126Y-112035000D01*
X78705874Y-112035000D01*
X79068007Y-111885000D01*
X85037839Y-111885000D01*
X85125000Y-111902337D01*
X85212161Y-111885000D01*
X85212165Y-111885000D01*
X85470310Y-111833652D01*
X85763049Y-111638049D01*
X85812425Y-111564153D01*
X85914154Y-111462424D01*
X85988049Y-111413049D01*
X86183652Y-111120310D01*
X86226842Y-110903177D01*
X86377765Y-110873157D01*
X86587809Y-110732809D01*
X86728157Y-110522765D01*
X86777440Y-110275000D01*
X86777440Y-109625000D01*
X86747603Y-109475000D01*
X86777440Y-109325000D01*
X86777440Y-108675000D01*
X86747603Y-108525000D01*
X86775451Y-108385000D01*
X104855604Y-108385000D01*
X105187138Y-108716534D01*
X105714561Y-108935000D01*
X106285439Y-108935000D01*
X106812862Y-108716534D01*
X107216534Y-108312862D01*
X107435000Y-107785439D01*
X107435000Y-107214561D01*
X107216534Y-106687138D01*
X106812862Y-106283466D01*
X106285439Y-106065000D01*
X105714561Y-106065000D01*
X105187138Y-106283466D01*
X104855604Y-106615000D01*
X85987159Y-106615000D01*
X85899999Y-106597663D01*
X85812839Y-106615000D01*
X85812835Y-106615000D01*
X85554690Y-106666348D01*
X85261951Y-106861951D01*
X85212575Y-106935847D01*
X85070862Y-107077560D01*
X84570000Y-107077560D01*
X84322235Y-107126843D01*
X84208246Y-107203008D01*
X84017165Y-107165000D01*
X84017161Y-107165000D01*
X83930000Y-107147663D01*
X83910000Y-107151641D01*
X83910000Y-106134423D01*
X83984586Y-106084586D01*
X84179127Y-105793436D01*
X84247440Y-105450001D01*
X84247440Y-104549999D01*
X84179127Y-104206564D01*
X83984586Y-103915414D01*
X83910000Y-103865577D01*
X83910000Y-103134423D01*
X83984586Y-103084586D01*
X84179127Y-102793436D01*
X84247440Y-102450001D01*
X84247440Y-101549999D01*
X84179127Y-101206564D01*
X83984586Y-100915414D01*
X83910000Y-100865577D01*
X83910000Y-100134423D01*
X83984586Y-100084586D01*
X84179127Y-99793436D01*
X84247440Y-99450001D01*
X84247440Y-98549999D01*
X84179127Y-98206564D01*
X83984586Y-97915414D01*
X83693436Y-97720873D01*
X83350001Y-97652560D01*
X82699999Y-97652560D01*
X82356564Y-97720873D01*
X82065414Y-97915414D01*
X82000000Y-98013313D01*
X81934586Y-97915414D01*
X81643436Y-97720873D01*
X81300001Y-97652560D01*
X80649999Y-97652560D01*
X80306564Y-97720873D01*
X80015414Y-97915414D01*
X79820873Y-98206564D01*
X79752560Y-98549999D01*
X79752560Y-99450001D01*
X79820873Y-99793436D01*
X80015414Y-100084586D01*
X80090000Y-100134423D01*
X80090001Y-100865577D01*
X80015414Y-100915414D01*
X79820873Y-101206564D01*
X79752560Y-101549999D01*
X79752560Y-102450001D01*
X79820873Y-102793436D01*
X80015414Y-103084586D01*
X80090000Y-103134423D01*
X80090001Y-103865577D01*
X80015414Y-103915414D01*
X79820873Y-104206564D01*
X79752560Y-104549999D01*
X79752560Y-105450001D01*
X79820873Y-105793436D01*
X80015414Y-106084586D01*
X80169623Y-106187626D01*
X80336951Y-106438049D01*
X80410847Y-106487425D01*
X80434999Y-106511577D01*
X80434999Y-107087164D01*
X80435000Y-107087169D01*
X80434999Y-108990001D01*
X77917311Y-108990001D01*
X78035000Y-108705874D01*
X78035000Y-108294126D01*
X77877431Y-107913720D01*
X77586280Y-107622569D01*
X77224148Y-107472569D01*
X76885000Y-107133422D01*
X76885000Y-102117946D01*
X77084586Y-101984586D01*
X77279127Y-101693436D01*
X77347440Y-101350001D01*
X77347440Y-100699999D01*
X77279127Y-100356564D01*
X77084586Y-100065414D01*
X76986687Y-100000000D01*
X77084586Y-99934586D01*
X77279127Y-99643436D01*
X77347440Y-99300001D01*
X77347440Y-98649999D01*
X77279127Y-98306564D01*
X77084586Y-98015414D01*
X76885000Y-97882054D01*
X76885000Y-93385000D01*
X92855604Y-93385000D01*
X93187138Y-93716534D01*
X93714561Y-93935000D01*
X94285439Y-93935000D01*
X94812862Y-93716534D01*
X95216534Y-93312862D01*
X95435000Y-92785439D01*
X95435000Y-92214561D01*
X95216534Y-91687138D01*
X94812862Y-91283466D01*
X94285439Y-91065000D01*
X93714561Y-91065000D01*
X93187138Y-91283466D01*
X92855604Y-91615000D01*
X76885000Y-91615000D01*
X76885000Y-89695628D01*
X77446158Y-89134470D01*
X77885440Y-88073950D01*
X77885440Y-86926050D01*
X77446158Y-85865530D01*
X76634470Y-85053842D01*
X75573950Y-84614560D01*
X74426050Y-84614560D01*
X73787771Y-84878944D01*
X73840419Y-84782780D01*
X74088551Y-84469907D01*
X74379597Y-84263964D01*
X74716747Y-84147986D01*
X75072895Y-84131295D01*
X75431617Y-84218192D01*
X75697584Y-84359575D01*
X77714027Y-85731055D01*
X77726489Y-85736337D01*
X77800432Y-85782771D01*
X77856399Y-85807662D01*
X77909045Y-85838963D01*
X77917356Y-85842361D01*
X78443556Y-86053715D01*
X78540480Y-86077403D01*
X78637061Y-86102261D01*
X78645992Y-86103190D01*
X79210361Y-86158364D01*
X79310032Y-86153897D01*
X79409716Y-86150648D01*
X79418541Y-86149033D01*
X79418547Y-86149033D01*
X79418552Y-86149031D01*
X79975719Y-86043587D01*
X80070123Y-86011327D01*
X80164893Y-85980230D01*
X80172915Y-85976201D01*
X80172918Y-85976200D01*
X80172921Y-85976198D01*
X80678098Y-85718615D01*
X80759626Y-85661175D01*
X80841887Y-85604709D01*
X80848457Y-85598589D01*
X81261036Y-85209570D01*
X81262084Y-85208254D01*
X81267070Y-85203817D01*
X81307853Y-85161190D01*
X81312916Y-85155393D01*
X82584658Y-83683808D01*
X83949290Y-82339673D01*
X85417321Y-81109311D01*
X86979301Y-80000646D01*
X88625166Y-79020818D01*
X90344314Y-78176142D01*
X92125648Y-77472069D01*
X93957739Y-76913114D01*
X95828723Y-76502900D01*
X97726602Y-76244054D01*
X99639123Y-76138251D01*
X101553959Y-76186169D01*
X101553959Y-76186169D01*
G37*
X101553959Y-76186169D02*
X103458805Y-76387504D01*
X105341346Y-76740953D01*
X107189490Y-77244244D01*
X108991313Y-77894133D01*
X110735209Y-78686430D01*
X112409954Y-79616039D01*
X114004740Y-80676958D01*
X115509311Y-81862366D01*
X116913965Y-83164616D01*
X118209660Y-84575332D01*
X119388041Y-86085412D01*
X120441515Y-87685125D01*
X121363312Y-89364195D01*
X122147469Y-91111760D01*
X122788949Y-92916591D01*
X123283619Y-94767053D01*
X123628291Y-96651225D01*
X123820744Y-98556984D01*
X123859737Y-100472030D01*
X123745020Y-102384039D01*
X123477332Y-104280677D01*
X123058395Y-106149754D01*
X122490915Y-107979195D01*
X121778543Y-109757235D01*
X120925862Y-111472427D01*
X119938372Y-113113711D01*
X118822443Y-114670498D01*
X117585251Y-116132780D01*
X116234772Y-117491131D01*
X114779697Y-118736804D01*
X113229415Y-119861765D01*
X111593892Y-120858779D01*
X109883695Y-121721406D01*
X108109827Y-122444097D01*
X106283705Y-123022201D01*
X104417094Y-123451991D01*
X102522034Y-123730696D01*
X100610737Y-123856521D01*
X98695492Y-123828655D01*
X96788664Y-123647281D01*
X94902514Y-123313564D01*
X93049193Y-122829651D01*
X91240675Y-122198671D01*
X89488568Y-121424675D01*
X87804182Y-120512656D01*
X86198374Y-119468495D01*
X84681473Y-118298910D01*
X83263260Y-117011440D01*
X81947888Y-115609068D01*
X81322315Y-114855561D01*
X81320777Y-114853853D01*
X81320447Y-114853320D01*
X81314642Y-114846469D01*
X81219475Y-114735544D01*
X81173402Y-114695177D01*
X81132399Y-114649674D01*
X81125469Y-114643965D01*
X80685581Y-114286115D01*
X80600050Y-114234767D01*
X80515167Y-114182386D01*
X80506914Y-114178853D01*
X80506911Y-114178851D01*
X80506907Y-114178850D01*
X79984269Y-113958846D01*
X79887707Y-113933552D01*
X79791590Y-113907116D01*
X79782677Y-113906040D01*
X79782675Y-113906040D01*
X79219292Y-113841567D01*
X79119559Y-113844390D01*
X79019840Y-113845994D01*
X79010982Y-113847464D01*
X79010980Y-113847464D01*
X78452147Y-113943705D01*
X78357224Y-113974404D01*
X78261954Y-114003934D01*
X78253864Y-114007831D01*
X77762354Y-114248316D01*
X77714026Y-114268802D01*
X75707822Y-115633319D01*
X75340041Y-115813267D01*
X74988675Y-115873778D01*
X74634445Y-115833240D01*
X74305835Y-115694913D01*
X74019515Y-115461990D01*
X73848224Y-115230454D01*
X73790024Y-115121989D01*
X74426050Y-115385440D01*
X75573950Y-115385440D01*
X76634470Y-114946158D01*
X77446158Y-114134470D01*
X77885440Y-113073950D01*
X77885440Y-111926050D01*
X77831064Y-111794775D01*
X77913720Y-111877431D01*
X78294126Y-112035000D01*
X78705874Y-112035000D01*
X79068007Y-111885000D01*
X85037839Y-111885000D01*
X85125000Y-111902337D01*
X85212161Y-111885000D01*
X85212165Y-111885000D01*
X85470310Y-111833652D01*
X85763049Y-111638049D01*
X85812425Y-111564153D01*
X85914154Y-111462424D01*
X85988049Y-111413049D01*
X86183652Y-111120310D01*
X86226842Y-110903177D01*
X86377765Y-110873157D01*
X86587809Y-110732809D01*
X86728157Y-110522765D01*
X86777440Y-110275000D01*
X86777440Y-109625000D01*
X86747603Y-109475000D01*
X86777440Y-109325000D01*
X86777440Y-108675000D01*
X86747603Y-108525000D01*
X86775451Y-108385000D01*
X104855604Y-108385000D01*
X105187138Y-108716534D01*
X105714561Y-108935000D01*
X106285439Y-108935000D01*
X106812862Y-108716534D01*
X107216534Y-108312862D01*
X107435000Y-107785439D01*
X107435000Y-107214561D01*
X107216534Y-106687138D01*
X106812862Y-106283466D01*
X106285439Y-106065000D01*
X105714561Y-106065000D01*
X105187138Y-106283466D01*
X104855604Y-106615000D01*
X85987159Y-106615000D01*
X85899999Y-106597663D01*
X85812839Y-106615000D01*
X85812835Y-106615000D01*
X85554690Y-106666348D01*
X85261951Y-106861951D01*
X85212575Y-106935847D01*
X85070862Y-107077560D01*
X84570000Y-107077560D01*
X84322235Y-107126843D01*
X84208246Y-107203008D01*
X84017165Y-107165000D01*
X84017161Y-107165000D01*
X83930000Y-107147663D01*
X83910000Y-107151641D01*
X83910000Y-106134423D01*
X83984586Y-106084586D01*
X84179127Y-105793436D01*
X84247440Y-105450001D01*
X84247440Y-104549999D01*
X84179127Y-104206564D01*
X83984586Y-103915414D01*
X83910000Y-103865577D01*
X83910000Y-103134423D01*
X83984586Y-103084586D01*
X84179127Y-102793436D01*
X84247440Y-102450001D01*
X84247440Y-101549999D01*
X84179127Y-101206564D01*
X83984586Y-100915414D01*
X83910000Y-100865577D01*
X83910000Y-100134423D01*
X83984586Y-100084586D01*
X84179127Y-99793436D01*
X84247440Y-99450001D01*
X84247440Y-98549999D01*
X84179127Y-98206564D01*
X83984586Y-97915414D01*
X83693436Y-97720873D01*
X83350001Y-97652560D01*
X82699999Y-97652560D01*
X82356564Y-97720873D01*
X82065414Y-97915414D01*
X82000000Y-98013313D01*
X81934586Y-97915414D01*
X81643436Y-97720873D01*
X81300001Y-97652560D01*
X80649999Y-97652560D01*
X80306564Y-97720873D01*
X80015414Y-97915414D01*
X79820873Y-98206564D01*
X79752560Y-98549999D01*
X79752560Y-99450001D01*
X79820873Y-99793436D01*
X80015414Y-100084586D01*
X80090000Y-100134423D01*
X80090001Y-100865577D01*
X80015414Y-100915414D01*
X79820873Y-101206564D01*
X79752560Y-101549999D01*
X79752560Y-102450001D01*
X79820873Y-102793436D01*
X80015414Y-103084586D01*
X80090000Y-103134423D01*
X80090001Y-103865577D01*
X80015414Y-103915414D01*
X79820873Y-104206564D01*
X79752560Y-104549999D01*
X79752560Y-105450001D01*
X79820873Y-105793436D01*
X80015414Y-106084586D01*
X80169623Y-106187626D01*
X80336951Y-106438049D01*
X80410847Y-106487425D01*
X80434999Y-106511577D01*
X80434999Y-107087164D01*
X80435000Y-107087169D01*
X80434999Y-108990001D01*
X77917311Y-108990001D01*
X78035000Y-108705874D01*
X78035000Y-108294126D01*
X77877431Y-107913720D01*
X77586280Y-107622569D01*
X77224148Y-107472569D01*
X76885000Y-107133422D01*
X76885000Y-102117946D01*
X77084586Y-101984586D01*
X77279127Y-101693436D01*
X77347440Y-101350001D01*
X77347440Y-100699999D01*
X77279127Y-100356564D01*
X77084586Y-100065414D01*
X76986687Y-100000000D01*
X77084586Y-99934586D01*
X77279127Y-99643436D01*
X77347440Y-99300001D01*
X77347440Y-98649999D01*
X77279127Y-98306564D01*
X77084586Y-98015414D01*
X76885000Y-97882054D01*
X76885000Y-93385000D01*
X92855604Y-93385000D01*
X93187138Y-93716534D01*
X93714561Y-93935000D01*
X94285439Y-93935000D01*
X94812862Y-93716534D01*
X95216534Y-93312862D01*
X95435000Y-92785439D01*
X95435000Y-92214561D01*
X95216534Y-91687138D01*
X94812862Y-91283466D01*
X94285439Y-91065000D01*
X93714561Y-91065000D01*
X93187138Y-91283466D01*
X92855604Y-91615000D01*
X76885000Y-91615000D01*
X76885000Y-89695628D01*
X77446158Y-89134470D01*
X77885440Y-88073950D01*
X77885440Y-86926050D01*
X77446158Y-85865530D01*
X76634470Y-85053842D01*
X75573950Y-84614560D01*
X74426050Y-84614560D01*
X73787771Y-84878944D01*
X73840419Y-84782780D01*
X74088551Y-84469907D01*
X74379597Y-84263964D01*
X74716747Y-84147986D01*
X75072895Y-84131295D01*
X75431617Y-84218192D01*
X75697584Y-84359575D01*
X77714027Y-85731055D01*
X77726489Y-85736337D01*
X77800432Y-85782771D01*
X77856399Y-85807662D01*
X77909045Y-85838963D01*
X77917356Y-85842361D01*
X78443556Y-86053715D01*
X78540480Y-86077403D01*
X78637061Y-86102261D01*
X78645992Y-86103190D01*
X79210361Y-86158364D01*
X79310032Y-86153897D01*
X79409716Y-86150648D01*
X79418541Y-86149033D01*
X79418547Y-86149033D01*
X79418552Y-86149031D01*
X79975719Y-86043587D01*
X80070123Y-86011327D01*
X80164893Y-85980230D01*
X80172915Y-85976201D01*
X80172918Y-85976200D01*
X80172921Y-85976198D01*
X80678098Y-85718615D01*
X80759626Y-85661175D01*
X80841887Y-85604709D01*
X80848457Y-85598589D01*
X81261036Y-85209570D01*
X81262084Y-85208254D01*
X81267070Y-85203817D01*
X81307853Y-85161190D01*
X81312916Y-85155393D01*
X82584658Y-83683808D01*
X83949290Y-82339673D01*
X85417321Y-81109311D01*
X86979301Y-80000646D01*
X88625166Y-79020818D01*
X90344314Y-78176142D01*
X92125648Y-77472069D01*
X93957739Y-76913114D01*
X95828723Y-76502900D01*
X97726602Y-76244054D01*
X99639123Y-76138251D01*
X101553959Y-76186169D01*
G36*
X72553842Y-89134470D02*
X73365530Y-89946158D01*
X74426050Y-90385440D01*
X75115001Y-90385440D01*
X75115000Y-92412835D01*
X75097662Y-92500000D01*
X75115001Y-92587169D01*
X75115001Y-95327357D01*
X74658564Y-94225421D01*
X74235880Y-93943725D01*
X72179605Y-96000000D01*
X74235880Y-98056275D01*
X74658564Y-97774579D01*
X75115000Y-96671167D01*
X75115000Y-97882054D01*
X74915414Y-98015414D01*
X74720873Y-98306564D01*
X74652560Y-98649999D01*
X74652560Y-99300001D01*
X74720873Y-99643436D01*
X74915414Y-99934586D01*
X75013313Y-100000000D01*
X74915414Y-100065414D01*
X74720873Y-100356564D01*
X74652560Y-100699999D01*
X74652560Y-101350001D01*
X74720873Y-101693436D01*
X74915414Y-101984586D01*
X75115000Y-102117946D01*
X75115000Y-103327357D01*
X74658564Y-102225421D01*
X74235880Y-101943725D01*
X72179605Y-104000000D01*
X74235880Y-106056275D01*
X74658564Y-105774579D01*
X75115001Y-104671166D01*
X75115001Y-107412835D01*
X75097663Y-107500000D01*
X75166348Y-107845309D01*
X75312576Y-108064154D01*
X75312578Y-108064156D01*
X75361952Y-108138049D01*
X75435845Y-108187423D01*
X75972569Y-108724148D01*
X76122569Y-109086280D01*
X76413720Y-109377431D01*
X76737059Y-109511362D01*
X76323420Y-109925001D01*
X75573950Y-109614560D01*
X74426050Y-109614560D01*
X73365530Y-110053842D01*
X72553842Y-110865530D01*
X72156301Y-111825279D01*
X71952486Y-111370007D01*
X71211328Y-109335567D01*
X70617533Y-107253369D01*
X70518448Y-106779777D01*
X71377892Y-107135294D01*
X72625072Y-107134705D01*
X73774579Y-106658564D01*
X74056275Y-106235880D01*
X72000000Y-104179605D01*
X71985858Y-104193748D01*
X71806253Y-104014143D01*
X71820395Y-104000000D01*
X71806253Y-103985858D01*
X71985858Y-103806253D01*
X72000000Y-103820395D01*
X74056275Y-101764120D01*
X73774579Y-101341436D01*
X72622108Y-100864706D01*
X71374928Y-100865295D01*
X70225421Y-101341436D01*
X69943726Y-101764118D01*
X69831354Y-101651746D01*
X69800819Y-101682281D01*
X69746788Y-100827510D01*
X69765042Y-98662364D01*
X69793274Y-98310174D01*
X69831354Y-98348254D01*
X69943726Y-98235882D01*
X70225421Y-98658564D01*
X71377892Y-99135294D01*
X72625072Y-99134705D01*
X73774579Y-98658564D01*
X74056275Y-98235880D01*
X72000000Y-96179605D01*
X71985858Y-96193748D01*
X71806253Y-96014143D01*
X71820395Y-96000000D01*
X71806253Y-95985858D01*
X71985858Y-95806253D01*
X72000000Y-95820395D01*
X74056275Y-93764120D01*
X73774579Y-93341436D01*
X72622108Y-92864706D01*
X71374928Y-92865295D01*
X70525014Y-93217341D01*
X70744012Y-92252099D01*
X71372833Y-90180201D01*
X72148180Y-88158566D01*
X72148938Y-88156947D01*
X72553842Y-89134470D01*
X72553842Y-89134470D01*
G37*
X72553842Y-89134470D02*
X73365530Y-89946158D01*
X74426050Y-90385440D01*
X75115001Y-90385440D01*
X75115000Y-92412835D01*
X75097662Y-92500000D01*
X75115001Y-92587169D01*
X75115001Y-95327357D01*
X74658564Y-94225421D01*
X74235880Y-93943725D01*
X72179605Y-96000000D01*
X74235880Y-98056275D01*
X74658564Y-97774579D01*
X75115000Y-96671167D01*
X75115000Y-97882054D01*
X74915414Y-98015414D01*
X74720873Y-98306564D01*
X74652560Y-98649999D01*
X74652560Y-99300001D01*
X74720873Y-99643436D01*
X74915414Y-99934586D01*
X75013313Y-100000000D01*
X74915414Y-100065414D01*
X74720873Y-100356564D01*
X74652560Y-100699999D01*
X74652560Y-101350001D01*
X74720873Y-101693436D01*
X74915414Y-101984586D01*
X75115000Y-102117946D01*
X75115000Y-103327357D01*
X74658564Y-102225421D01*
X74235880Y-101943725D01*
X72179605Y-104000000D01*
X74235880Y-106056275D01*
X74658564Y-105774579D01*
X75115001Y-104671166D01*
X75115001Y-107412835D01*
X75097663Y-107500000D01*
X75166348Y-107845309D01*
X75312576Y-108064154D01*
X75312578Y-108064156D01*
X75361952Y-108138049D01*
X75435845Y-108187423D01*
X75972569Y-108724148D01*
X76122569Y-109086280D01*
X76413720Y-109377431D01*
X76737059Y-109511362D01*
X76323420Y-109925001D01*
X75573950Y-109614560D01*
X74426050Y-109614560D01*
X73365530Y-110053842D01*
X72553842Y-110865530D01*
X72156301Y-111825279D01*
X71952486Y-111370007D01*
X71211328Y-109335567D01*
X70617533Y-107253369D01*
X70518448Y-106779777D01*
X71377892Y-107135294D01*
X72625072Y-107134705D01*
X73774579Y-106658564D01*
X74056275Y-106235880D01*
X72000000Y-104179605D01*
X71985858Y-104193748D01*
X71806253Y-104014143D01*
X71820395Y-104000000D01*
X71806253Y-103985858D01*
X71985858Y-103806253D01*
X72000000Y-103820395D01*
X74056275Y-101764120D01*
X73774579Y-101341436D01*
X72622108Y-100864706D01*
X71374928Y-100865295D01*
X70225421Y-101341436D01*
X69943726Y-101764118D01*
X69831354Y-101651746D01*
X69800819Y-101682281D01*
X69746788Y-100827510D01*
X69765042Y-98662364D01*
X69793274Y-98310174D01*
X69831354Y-98348254D01*
X69943726Y-98235882D01*
X70225421Y-98658564D01*
X71377892Y-99135294D01*
X72625072Y-99134705D01*
X73774579Y-98658564D01*
X74056275Y-98235880D01*
X72000000Y-96179605D01*
X71985858Y-96193748D01*
X71806253Y-96014143D01*
X71820395Y-96000000D01*
X71806253Y-95985858D01*
X71985858Y-95806253D01*
X72000000Y-95820395D01*
X74056275Y-93764120D01*
X73774579Y-93341436D01*
X72622108Y-92864706D01*
X71374928Y-92865295D01*
X70525014Y-93217341D01*
X70744012Y-92252099D01*
X71372833Y-90180201D01*
X72148180Y-88158566D01*
X72148938Y-88156947D01*
X72553842Y-89134470D01*
G04 #@! TD*
M02*
