G04 #@! TF.GenerationSoftware,KiCad,Pcbnew,5.0.2-bee76a0~70~ubuntu16.04.1*
G04 #@! TF.CreationDate,2019-11-30T17:26:29+01:00*
G04 #@! TF.ProjectId,bambule,62616d62-756c-4652-9e6b-696361645f70,rev?*
G04 #@! TF.SameCoordinates,Original*
G04 #@! TF.FileFunction,Paste,Top*
G04 #@! TF.FilePolarity,Positive*
%FSLAX46Y46*%
G04 Gerber Fmt 4.6, Leading zero omitted, Abs format (unit mm)*
G04 Created by KiCad (PCBNEW 5.0.2-bee76a0~70~ubuntu16.04.1) date Sat 30 Nov 2019 05:26:29 PM CET*
%MOMM*%
%LPD*%
G01*
G04 APERTURE LIST*
%ADD10C,0.100000*%
%ADD11C,1.150000*%
%ADD12R,1.560000X0.650000*%
G04 APERTURE END LIST*
D10*
G04 #@! TO.C,R1*
G36*
X79474505Y-96451204D02*
X79498773Y-96454804D01*
X79522572Y-96460765D01*
X79545671Y-96469030D01*
X79567850Y-96479520D01*
X79588893Y-96492132D01*
X79608599Y-96506747D01*
X79626777Y-96523223D01*
X79643253Y-96541401D01*
X79657868Y-96561107D01*
X79670480Y-96582150D01*
X79680970Y-96604329D01*
X79689235Y-96627428D01*
X79695196Y-96651227D01*
X79698796Y-96675495D01*
X79700000Y-96699999D01*
X79700000Y-97350001D01*
X79698796Y-97374505D01*
X79695196Y-97398773D01*
X79689235Y-97422572D01*
X79680970Y-97445671D01*
X79670480Y-97467850D01*
X79657868Y-97488893D01*
X79643253Y-97508599D01*
X79626777Y-97526777D01*
X79608599Y-97543253D01*
X79588893Y-97557868D01*
X79567850Y-97570480D01*
X79545671Y-97580970D01*
X79522572Y-97589235D01*
X79498773Y-97595196D01*
X79474505Y-97598796D01*
X79450001Y-97600000D01*
X78549999Y-97600000D01*
X78525495Y-97598796D01*
X78501227Y-97595196D01*
X78477428Y-97589235D01*
X78454329Y-97580970D01*
X78432150Y-97570480D01*
X78411107Y-97557868D01*
X78391401Y-97543253D01*
X78373223Y-97526777D01*
X78356747Y-97508599D01*
X78342132Y-97488893D01*
X78329520Y-97467850D01*
X78319030Y-97445671D01*
X78310765Y-97422572D01*
X78304804Y-97398773D01*
X78301204Y-97374505D01*
X78300000Y-97350001D01*
X78300000Y-96699999D01*
X78301204Y-96675495D01*
X78304804Y-96651227D01*
X78310765Y-96627428D01*
X78319030Y-96604329D01*
X78329520Y-96582150D01*
X78342132Y-96561107D01*
X78356747Y-96541401D01*
X78373223Y-96523223D01*
X78391401Y-96506747D01*
X78411107Y-96492132D01*
X78432150Y-96479520D01*
X78454329Y-96469030D01*
X78477428Y-96460765D01*
X78501227Y-96454804D01*
X78525495Y-96451204D01*
X78549999Y-96450000D01*
X79450001Y-96450000D01*
X79474505Y-96451204D01*
X79474505Y-96451204D01*
G37*
D11*
X79000000Y-97025000D03*
D10*
G36*
X79474505Y-94401204D02*
X79498773Y-94404804D01*
X79522572Y-94410765D01*
X79545671Y-94419030D01*
X79567850Y-94429520D01*
X79588893Y-94442132D01*
X79608599Y-94456747D01*
X79626777Y-94473223D01*
X79643253Y-94491401D01*
X79657868Y-94511107D01*
X79670480Y-94532150D01*
X79680970Y-94554329D01*
X79689235Y-94577428D01*
X79695196Y-94601227D01*
X79698796Y-94625495D01*
X79700000Y-94649999D01*
X79700000Y-95300001D01*
X79698796Y-95324505D01*
X79695196Y-95348773D01*
X79689235Y-95372572D01*
X79680970Y-95395671D01*
X79670480Y-95417850D01*
X79657868Y-95438893D01*
X79643253Y-95458599D01*
X79626777Y-95476777D01*
X79608599Y-95493253D01*
X79588893Y-95507868D01*
X79567850Y-95520480D01*
X79545671Y-95530970D01*
X79522572Y-95539235D01*
X79498773Y-95545196D01*
X79474505Y-95548796D01*
X79450001Y-95550000D01*
X78549999Y-95550000D01*
X78525495Y-95548796D01*
X78501227Y-95545196D01*
X78477428Y-95539235D01*
X78454329Y-95530970D01*
X78432150Y-95520480D01*
X78411107Y-95507868D01*
X78391401Y-95493253D01*
X78373223Y-95476777D01*
X78356747Y-95458599D01*
X78342132Y-95438893D01*
X78329520Y-95417850D01*
X78319030Y-95395671D01*
X78310765Y-95372572D01*
X78304804Y-95348773D01*
X78301204Y-95324505D01*
X78300000Y-95300001D01*
X78300000Y-94649999D01*
X78301204Y-94625495D01*
X78304804Y-94601227D01*
X78310765Y-94577428D01*
X78319030Y-94554329D01*
X78329520Y-94532150D01*
X78342132Y-94511107D01*
X78356747Y-94491401D01*
X78373223Y-94473223D01*
X78391401Y-94456747D01*
X78411107Y-94442132D01*
X78432150Y-94429520D01*
X78454329Y-94419030D01*
X78477428Y-94410765D01*
X78501227Y-94404804D01*
X78525495Y-94401204D01*
X78549999Y-94400000D01*
X79450001Y-94400000D01*
X79474505Y-94401204D01*
X79474505Y-94401204D01*
G37*
D11*
X79000000Y-94975000D03*
G04 #@! TD*
D10*
G04 #@! TO.C,R2*
G36*
X81324505Y-104301204D02*
X81348773Y-104304804D01*
X81372572Y-104310765D01*
X81395671Y-104319030D01*
X81417850Y-104329520D01*
X81438893Y-104342132D01*
X81458599Y-104356747D01*
X81476777Y-104373223D01*
X81493253Y-104391401D01*
X81507868Y-104411107D01*
X81520480Y-104432150D01*
X81530970Y-104454329D01*
X81539235Y-104477428D01*
X81545196Y-104501227D01*
X81548796Y-104525495D01*
X81550000Y-104549999D01*
X81550000Y-105450001D01*
X81548796Y-105474505D01*
X81545196Y-105498773D01*
X81539235Y-105522572D01*
X81530970Y-105545671D01*
X81520480Y-105567850D01*
X81507868Y-105588893D01*
X81493253Y-105608599D01*
X81476777Y-105626777D01*
X81458599Y-105643253D01*
X81438893Y-105657868D01*
X81417850Y-105670480D01*
X81395671Y-105680970D01*
X81372572Y-105689235D01*
X81348773Y-105695196D01*
X81324505Y-105698796D01*
X81300001Y-105700000D01*
X80649999Y-105700000D01*
X80625495Y-105698796D01*
X80601227Y-105695196D01*
X80577428Y-105689235D01*
X80554329Y-105680970D01*
X80532150Y-105670480D01*
X80511107Y-105657868D01*
X80491401Y-105643253D01*
X80473223Y-105626777D01*
X80456747Y-105608599D01*
X80442132Y-105588893D01*
X80429520Y-105567850D01*
X80419030Y-105545671D01*
X80410765Y-105522572D01*
X80404804Y-105498773D01*
X80401204Y-105474505D01*
X80400000Y-105450001D01*
X80400000Y-104549999D01*
X80401204Y-104525495D01*
X80404804Y-104501227D01*
X80410765Y-104477428D01*
X80419030Y-104454329D01*
X80429520Y-104432150D01*
X80442132Y-104411107D01*
X80456747Y-104391401D01*
X80473223Y-104373223D01*
X80491401Y-104356747D01*
X80511107Y-104342132D01*
X80532150Y-104329520D01*
X80554329Y-104319030D01*
X80577428Y-104310765D01*
X80601227Y-104304804D01*
X80625495Y-104301204D01*
X80649999Y-104300000D01*
X81300001Y-104300000D01*
X81324505Y-104301204D01*
X81324505Y-104301204D01*
G37*
D11*
X80975000Y-105000000D03*
D10*
G36*
X83374505Y-104301204D02*
X83398773Y-104304804D01*
X83422572Y-104310765D01*
X83445671Y-104319030D01*
X83467850Y-104329520D01*
X83488893Y-104342132D01*
X83508599Y-104356747D01*
X83526777Y-104373223D01*
X83543253Y-104391401D01*
X83557868Y-104411107D01*
X83570480Y-104432150D01*
X83580970Y-104454329D01*
X83589235Y-104477428D01*
X83595196Y-104501227D01*
X83598796Y-104525495D01*
X83600000Y-104549999D01*
X83600000Y-105450001D01*
X83598796Y-105474505D01*
X83595196Y-105498773D01*
X83589235Y-105522572D01*
X83580970Y-105545671D01*
X83570480Y-105567850D01*
X83557868Y-105588893D01*
X83543253Y-105608599D01*
X83526777Y-105626777D01*
X83508599Y-105643253D01*
X83488893Y-105657868D01*
X83467850Y-105670480D01*
X83445671Y-105680970D01*
X83422572Y-105689235D01*
X83398773Y-105695196D01*
X83374505Y-105698796D01*
X83350001Y-105700000D01*
X82699999Y-105700000D01*
X82675495Y-105698796D01*
X82651227Y-105695196D01*
X82627428Y-105689235D01*
X82604329Y-105680970D01*
X82582150Y-105670480D01*
X82561107Y-105657868D01*
X82541401Y-105643253D01*
X82523223Y-105626777D01*
X82506747Y-105608599D01*
X82492132Y-105588893D01*
X82479520Y-105567850D01*
X82469030Y-105545671D01*
X82460765Y-105522572D01*
X82454804Y-105498773D01*
X82451204Y-105474505D01*
X82450000Y-105450001D01*
X82450000Y-104549999D01*
X82451204Y-104525495D01*
X82454804Y-104501227D01*
X82460765Y-104477428D01*
X82469030Y-104454329D01*
X82479520Y-104432150D01*
X82492132Y-104411107D01*
X82506747Y-104391401D01*
X82523223Y-104373223D01*
X82541401Y-104356747D01*
X82561107Y-104342132D01*
X82582150Y-104329520D01*
X82604329Y-104319030D01*
X82627428Y-104310765D01*
X82651227Y-104304804D01*
X82675495Y-104301204D01*
X82699999Y-104300000D01*
X83350001Y-104300000D01*
X83374505Y-104301204D01*
X83374505Y-104301204D01*
G37*
D11*
X83025000Y-105000000D03*
G04 #@! TD*
D10*
G04 #@! TO.C,R3*
G36*
X83374505Y-101301204D02*
X83398773Y-101304804D01*
X83422572Y-101310765D01*
X83445671Y-101319030D01*
X83467850Y-101329520D01*
X83488893Y-101342132D01*
X83508599Y-101356747D01*
X83526777Y-101373223D01*
X83543253Y-101391401D01*
X83557868Y-101411107D01*
X83570480Y-101432150D01*
X83580970Y-101454329D01*
X83589235Y-101477428D01*
X83595196Y-101501227D01*
X83598796Y-101525495D01*
X83600000Y-101549999D01*
X83600000Y-102450001D01*
X83598796Y-102474505D01*
X83595196Y-102498773D01*
X83589235Y-102522572D01*
X83580970Y-102545671D01*
X83570480Y-102567850D01*
X83557868Y-102588893D01*
X83543253Y-102608599D01*
X83526777Y-102626777D01*
X83508599Y-102643253D01*
X83488893Y-102657868D01*
X83467850Y-102670480D01*
X83445671Y-102680970D01*
X83422572Y-102689235D01*
X83398773Y-102695196D01*
X83374505Y-102698796D01*
X83350001Y-102700000D01*
X82699999Y-102700000D01*
X82675495Y-102698796D01*
X82651227Y-102695196D01*
X82627428Y-102689235D01*
X82604329Y-102680970D01*
X82582150Y-102670480D01*
X82561107Y-102657868D01*
X82541401Y-102643253D01*
X82523223Y-102626777D01*
X82506747Y-102608599D01*
X82492132Y-102588893D01*
X82479520Y-102567850D01*
X82469030Y-102545671D01*
X82460765Y-102522572D01*
X82454804Y-102498773D01*
X82451204Y-102474505D01*
X82450000Y-102450001D01*
X82450000Y-101549999D01*
X82451204Y-101525495D01*
X82454804Y-101501227D01*
X82460765Y-101477428D01*
X82469030Y-101454329D01*
X82479520Y-101432150D01*
X82492132Y-101411107D01*
X82506747Y-101391401D01*
X82523223Y-101373223D01*
X82541401Y-101356747D01*
X82561107Y-101342132D01*
X82582150Y-101329520D01*
X82604329Y-101319030D01*
X82627428Y-101310765D01*
X82651227Y-101304804D01*
X82675495Y-101301204D01*
X82699999Y-101300000D01*
X83350001Y-101300000D01*
X83374505Y-101301204D01*
X83374505Y-101301204D01*
G37*
D11*
X83025000Y-102000000D03*
D10*
G36*
X81324505Y-101301204D02*
X81348773Y-101304804D01*
X81372572Y-101310765D01*
X81395671Y-101319030D01*
X81417850Y-101329520D01*
X81438893Y-101342132D01*
X81458599Y-101356747D01*
X81476777Y-101373223D01*
X81493253Y-101391401D01*
X81507868Y-101411107D01*
X81520480Y-101432150D01*
X81530970Y-101454329D01*
X81539235Y-101477428D01*
X81545196Y-101501227D01*
X81548796Y-101525495D01*
X81550000Y-101549999D01*
X81550000Y-102450001D01*
X81548796Y-102474505D01*
X81545196Y-102498773D01*
X81539235Y-102522572D01*
X81530970Y-102545671D01*
X81520480Y-102567850D01*
X81507868Y-102588893D01*
X81493253Y-102608599D01*
X81476777Y-102626777D01*
X81458599Y-102643253D01*
X81438893Y-102657868D01*
X81417850Y-102670480D01*
X81395671Y-102680970D01*
X81372572Y-102689235D01*
X81348773Y-102695196D01*
X81324505Y-102698796D01*
X81300001Y-102700000D01*
X80649999Y-102700000D01*
X80625495Y-102698796D01*
X80601227Y-102695196D01*
X80577428Y-102689235D01*
X80554329Y-102680970D01*
X80532150Y-102670480D01*
X80511107Y-102657868D01*
X80491401Y-102643253D01*
X80473223Y-102626777D01*
X80456747Y-102608599D01*
X80442132Y-102588893D01*
X80429520Y-102567850D01*
X80419030Y-102545671D01*
X80410765Y-102522572D01*
X80404804Y-102498773D01*
X80401204Y-102474505D01*
X80400000Y-102450001D01*
X80400000Y-101549999D01*
X80401204Y-101525495D01*
X80404804Y-101501227D01*
X80410765Y-101477428D01*
X80419030Y-101454329D01*
X80429520Y-101432150D01*
X80442132Y-101411107D01*
X80456747Y-101391401D01*
X80473223Y-101373223D01*
X80491401Y-101356747D01*
X80511107Y-101342132D01*
X80532150Y-101329520D01*
X80554329Y-101319030D01*
X80577428Y-101310765D01*
X80601227Y-101304804D01*
X80625495Y-101301204D01*
X80649999Y-101300000D01*
X81300001Y-101300000D01*
X81324505Y-101301204D01*
X81324505Y-101301204D01*
G37*
D11*
X80975000Y-102000000D03*
G04 #@! TD*
D12*
G04 #@! TO.C,U1*
X85350000Y-109950000D03*
X85350000Y-109000000D03*
X85350000Y-108050000D03*
X82650000Y-108050000D03*
X82650000Y-109950000D03*
X82650000Y-109000000D03*
G04 #@! TD*
D10*
G04 #@! TO.C,R4*
G36*
X81324505Y-98301204D02*
X81348773Y-98304804D01*
X81372572Y-98310765D01*
X81395671Y-98319030D01*
X81417850Y-98329520D01*
X81438893Y-98342132D01*
X81458599Y-98356747D01*
X81476777Y-98373223D01*
X81493253Y-98391401D01*
X81507868Y-98411107D01*
X81520480Y-98432150D01*
X81530970Y-98454329D01*
X81539235Y-98477428D01*
X81545196Y-98501227D01*
X81548796Y-98525495D01*
X81550000Y-98549999D01*
X81550000Y-99450001D01*
X81548796Y-99474505D01*
X81545196Y-99498773D01*
X81539235Y-99522572D01*
X81530970Y-99545671D01*
X81520480Y-99567850D01*
X81507868Y-99588893D01*
X81493253Y-99608599D01*
X81476777Y-99626777D01*
X81458599Y-99643253D01*
X81438893Y-99657868D01*
X81417850Y-99670480D01*
X81395671Y-99680970D01*
X81372572Y-99689235D01*
X81348773Y-99695196D01*
X81324505Y-99698796D01*
X81300001Y-99700000D01*
X80649999Y-99700000D01*
X80625495Y-99698796D01*
X80601227Y-99695196D01*
X80577428Y-99689235D01*
X80554329Y-99680970D01*
X80532150Y-99670480D01*
X80511107Y-99657868D01*
X80491401Y-99643253D01*
X80473223Y-99626777D01*
X80456747Y-99608599D01*
X80442132Y-99588893D01*
X80429520Y-99567850D01*
X80419030Y-99545671D01*
X80410765Y-99522572D01*
X80404804Y-99498773D01*
X80401204Y-99474505D01*
X80400000Y-99450001D01*
X80400000Y-98549999D01*
X80401204Y-98525495D01*
X80404804Y-98501227D01*
X80410765Y-98477428D01*
X80419030Y-98454329D01*
X80429520Y-98432150D01*
X80442132Y-98411107D01*
X80456747Y-98391401D01*
X80473223Y-98373223D01*
X80491401Y-98356747D01*
X80511107Y-98342132D01*
X80532150Y-98329520D01*
X80554329Y-98319030D01*
X80577428Y-98310765D01*
X80601227Y-98304804D01*
X80625495Y-98301204D01*
X80649999Y-98300000D01*
X81300001Y-98300000D01*
X81324505Y-98301204D01*
X81324505Y-98301204D01*
G37*
D11*
X80975000Y-99000000D03*
D10*
G36*
X83374505Y-98301204D02*
X83398773Y-98304804D01*
X83422572Y-98310765D01*
X83445671Y-98319030D01*
X83467850Y-98329520D01*
X83488893Y-98342132D01*
X83508599Y-98356747D01*
X83526777Y-98373223D01*
X83543253Y-98391401D01*
X83557868Y-98411107D01*
X83570480Y-98432150D01*
X83580970Y-98454329D01*
X83589235Y-98477428D01*
X83595196Y-98501227D01*
X83598796Y-98525495D01*
X83600000Y-98549999D01*
X83600000Y-99450001D01*
X83598796Y-99474505D01*
X83595196Y-99498773D01*
X83589235Y-99522572D01*
X83580970Y-99545671D01*
X83570480Y-99567850D01*
X83557868Y-99588893D01*
X83543253Y-99608599D01*
X83526777Y-99626777D01*
X83508599Y-99643253D01*
X83488893Y-99657868D01*
X83467850Y-99670480D01*
X83445671Y-99680970D01*
X83422572Y-99689235D01*
X83398773Y-99695196D01*
X83374505Y-99698796D01*
X83350001Y-99700000D01*
X82699999Y-99700000D01*
X82675495Y-99698796D01*
X82651227Y-99695196D01*
X82627428Y-99689235D01*
X82604329Y-99680970D01*
X82582150Y-99670480D01*
X82561107Y-99657868D01*
X82541401Y-99643253D01*
X82523223Y-99626777D01*
X82506747Y-99608599D01*
X82492132Y-99588893D01*
X82479520Y-99567850D01*
X82469030Y-99545671D01*
X82460765Y-99522572D01*
X82454804Y-99498773D01*
X82451204Y-99474505D01*
X82450000Y-99450001D01*
X82450000Y-98549999D01*
X82451204Y-98525495D01*
X82454804Y-98501227D01*
X82460765Y-98477428D01*
X82469030Y-98454329D01*
X82479520Y-98432150D01*
X82492132Y-98411107D01*
X82506747Y-98391401D01*
X82523223Y-98373223D01*
X82541401Y-98356747D01*
X82561107Y-98342132D01*
X82582150Y-98329520D01*
X82604329Y-98319030D01*
X82627428Y-98310765D01*
X82651227Y-98304804D01*
X82675495Y-98301204D01*
X82699999Y-98300000D01*
X83350001Y-98300000D01*
X83374505Y-98301204D01*
X83374505Y-98301204D01*
G37*
D11*
X83025000Y-99000000D03*
G04 #@! TD*
M02*
