G04 #@! TF.GenerationSoftware,KiCad,Pcbnew,5.0.2-bee76a0~70~ubuntu16.04.1*
G04 #@! TF.CreationDate,2019-11-30T17:31:12+01:00*
G04 #@! TF.ProjectId,bambule,62616d62-756c-4652-9e6b-696361645f70,rev?*
G04 #@! TF.SameCoordinates,Original*
G04 #@! TF.FileFunction,Legend,Top*
G04 #@! TF.FilePolarity,Positive*
%FSLAX46Y46*%
G04 Gerber Fmt 4.6, Leading zero omitted, Abs format (unit mm)*
G04 Created by KiCad (PCBNEW 5.0.2-bee76a0~70~ubuntu16.04.1) date Sat 30 Nov 2019 05:31:12 PM CET*
%MOMM*%
%LPD*%
G01*
G04 APERTURE LIST*
%ADD10C,0.300000*%
%ADD11C,0.120000*%
%ADD12C,0.150000*%
G04 APERTURE END LIST*
D10*
X111892857Y-107142857D02*
X111964285Y-106928571D01*
X112035714Y-106857142D01*
X112178571Y-106785714D01*
X112392857Y-106785714D01*
X112535714Y-106857142D01*
X112607142Y-106928571D01*
X112678571Y-107071428D01*
X112678571Y-107642857D01*
X111178571Y-107642857D01*
X111178571Y-107142857D01*
X111250000Y-107000000D01*
X111321428Y-106928571D01*
X111464285Y-106857142D01*
X111607142Y-106857142D01*
X111750000Y-106928571D01*
X111821428Y-107000000D01*
X111892857Y-107142857D01*
X111892857Y-107642857D01*
X112250000Y-106214285D02*
X112250000Y-105500000D01*
X112678571Y-106357142D02*
X111178571Y-105857142D01*
X112678571Y-105357142D01*
X112678571Y-104857142D02*
X111178571Y-104857142D01*
X112250000Y-104357142D01*
X111178571Y-103857142D01*
X112678571Y-103857142D01*
X111892857Y-102642857D02*
X111964285Y-102428571D01*
X112035714Y-102357142D01*
X112178571Y-102285714D01*
X112392857Y-102285714D01*
X112535714Y-102357142D01*
X112607142Y-102428571D01*
X112678571Y-102571428D01*
X112678571Y-103142857D01*
X111178571Y-103142857D01*
X111178571Y-102642857D01*
X111250000Y-102500000D01*
X111321428Y-102428571D01*
X111464285Y-102357142D01*
X111607142Y-102357142D01*
X111750000Y-102428571D01*
X111821428Y-102500000D01*
X111892857Y-102642857D01*
X111892857Y-103142857D01*
X111178571Y-101642857D02*
X112392857Y-101642857D01*
X112535714Y-101571428D01*
X112607142Y-101500000D01*
X112678571Y-101357142D01*
X112678571Y-101071428D01*
X112607142Y-100928571D01*
X112535714Y-100857142D01*
X112392857Y-100785714D01*
X111178571Y-100785714D01*
X112678571Y-99357142D02*
X112678571Y-100071428D01*
X111178571Y-100071428D01*
X111892857Y-98857142D02*
X111892857Y-98357142D01*
X112678571Y-98142857D02*
X112678571Y-98857142D01*
X111178571Y-98857142D01*
X111178571Y-98142857D01*
X111678571Y-96500000D02*
X112678571Y-96142857D01*
X111678571Y-95785714D01*
X112678571Y-94428571D02*
X112678571Y-95285714D01*
X112678571Y-94857142D02*
X111178571Y-94857142D01*
X111392857Y-95000000D01*
X111535714Y-95142857D01*
X111607142Y-95285714D01*
X112535714Y-93785714D02*
X112607142Y-93714285D01*
X112678571Y-93785714D01*
X112607142Y-93857142D01*
X112535714Y-93785714D01*
X112678571Y-93785714D01*
X111178571Y-92785714D02*
X111178571Y-92642857D01*
X111250000Y-92500000D01*
X111321428Y-92428571D01*
X111464285Y-92357142D01*
X111750000Y-92285714D01*
X112107142Y-92285714D01*
X112392857Y-92357142D01*
X112535714Y-92428571D01*
X112607142Y-92500000D01*
X112678571Y-92642857D01*
X112678571Y-92785714D01*
X112607142Y-92928571D01*
X112535714Y-93000000D01*
X112392857Y-93071428D01*
X112107142Y-93142857D01*
X111750000Y-93142857D01*
X111464285Y-93071428D01*
X111321428Y-93000000D01*
X111250000Y-92928571D01*
X111178571Y-92785714D01*
D11*
G04 #@! TO.C,R1*
X75290000Y-100261252D02*
X75290000Y-99738748D01*
X76710000Y-100261252D02*
X76710000Y-99738748D01*
G04 #@! TO.C,R2*
X81738748Y-104290000D02*
X82261252Y-104290000D01*
X81738748Y-105710000D02*
X82261252Y-105710000D01*
G04 #@! TO.C,R3*
X81738748Y-102710000D02*
X82261252Y-102710000D01*
X81738748Y-101290000D02*
X82261252Y-101290000D01*
G04 #@! TO.C,U1*
X84900000Y-107390000D02*
X83100000Y-107390000D01*
X83100000Y-110610000D02*
X86050000Y-110610000D01*
G04 #@! TO.C,R4*
X81738748Y-98290000D02*
X82261252Y-98290000D01*
X81738748Y-99710000D02*
X82261252Y-99710000D01*
G04 #@! TO.C,R1*
D12*
X74802380Y-100166666D02*
X74326190Y-100500000D01*
X74802380Y-100738095D02*
X73802380Y-100738095D01*
X73802380Y-100357142D01*
X73850000Y-100261904D01*
X73897619Y-100214285D01*
X73992857Y-100166666D01*
X74135714Y-100166666D01*
X74230952Y-100214285D01*
X74278571Y-100261904D01*
X74326190Y-100357142D01*
X74326190Y-100738095D01*
X74802380Y-99214285D02*
X74802380Y-99785714D01*
X74802380Y-99500000D02*
X73802380Y-99500000D01*
X73945238Y-99595238D01*
X74040476Y-99690476D01*
X74088095Y-99785714D01*
G04 #@! TO.C,R2*
X86833333Y-105452380D02*
X86500000Y-104976190D01*
X86261904Y-105452380D02*
X86261904Y-104452380D01*
X86642857Y-104452380D01*
X86738095Y-104500000D01*
X86785714Y-104547619D01*
X86833333Y-104642857D01*
X86833333Y-104785714D01*
X86785714Y-104880952D01*
X86738095Y-104928571D01*
X86642857Y-104976190D01*
X86261904Y-104976190D01*
X87214285Y-104547619D02*
X87261904Y-104500000D01*
X87357142Y-104452380D01*
X87595238Y-104452380D01*
X87690476Y-104500000D01*
X87738095Y-104547619D01*
X87785714Y-104642857D01*
X87785714Y-104738095D01*
X87738095Y-104880952D01*
X87166666Y-105452380D01*
X87785714Y-105452380D01*
G04 #@! TO.C,R3*
X86833333Y-102452380D02*
X86500000Y-101976190D01*
X86261904Y-102452380D02*
X86261904Y-101452380D01*
X86642857Y-101452380D01*
X86738095Y-101500000D01*
X86785714Y-101547619D01*
X86833333Y-101642857D01*
X86833333Y-101785714D01*
X86785714Y-101880952D01*
X86738095Y-101928571D01*
X86642857Y-101976190D01*
X86261904Y-101976190D01*
X87166666Y-101452380D02*
X87785714Y-101452380D01*
X87452380Y-101833333D01*
X87595238Y-101833333D01*
X87690476Y-101880952D01*
X87738095Y-101928571D01*
X87785714Y-102023809D01*
X87785714Y-102261904D01*
X87738095Y-102357142D01*
X87690476Y-102404761D01*
X87595238Y-102452380D01*
X87309523Y-102452380D01*
X87214285Y-102404761D01*
X87166666Y-102357142D01*
G04 #@! TO.C,U1*
X83238095Y-111352380D02*
X83238095Y-112161904D01*
X83285714Y-112257142D01*
X83333333Y-112304761D01*
X83428571Y-112352380D01*
X83619047Y-112352380D01*
X83714285Y-112304761D01*
X83761904Y-112257142D01*
X83809523Y-112161904D01*
X83809523Y-111352380D01*
X84809523Y-112352380D02*
X84238095Y-112352380D01*
X84523809Y-112352380D02*
X84523809Y-111352380D01*
X84428571Y-111495238D01*
X84333333Y-111590476D01*
X84238095Y-111638095D01*
G04 #@! TO.C,R4*
X86833333Y-99452380D02*
X86500000Y-98976190D01*
X86261904Y-99452380D02*
X86261904Y-98452380D01*
X86642857Y-98452380D01*
X86738095Y-98500000D01*
X86785714Y-98547619D01*
X86833333Y-98642857D01*
X86833333Y-98785714D01*
X86785714Y-98880952D01*
X86738095Y-98928571D01*
X86642857Y-98976190D01*
X86261904Y-98976190D01*
X87690476Y-98785714D02*
X87690476Y-99452380D01*
X87452380Y-98404761D02*
X87214285Y-99119047D01*
X87833333Y-99119047D01*
G04 #@! TD*
M02*
