G04 #@! TF.GenerationSoftware,KiCad,Pcbnew,5.0.2-bee76a0~70~ubuntu16.04.1*
G04 #@! TF.CreationDate,2019-11-30T17:26:29+01:00*
G04 #@! TF.ProjectId,bambule,62616d62-756c-4652-9e6b-696361645f70,rev?*
G04 #@! TF.SameCoordinates,Original*
G04 #@! TF.FileFunction,Soldermask,Bot*
G04 #@! TF.FilePolarity,Negative*
%FSLAX46Y46*%
G04 Gerber Fmt 4.6, Leading zero omitted, Abs format (unit mm)*
G04 Created by KiCad (PCBNEW 5.0.2-bee76a0~70~ubuntu16.04.1) date Sat 30 Nov 2019 05:26:29 PM CET*
%MOMM*%
%LPD*%
G01*
G04 APERTURE LIST*
%ADD10C,0.100000*%
G04 APERTURE END LIST*
D10*
G36*
X75671305Y-110287002D02*
X76090140Y-110460489D01*
X76467086Y-110712357D01*
X76787643Y-111032914D01*
X77039511Y-111409860D01*
X77212998Y-111828695D01*
X77301440Y-112273326D01*
X77301440Y-112726674D01*
X77212998Y-113171305D01*
X77039511Y-113590140D01*
X76787643Y-113967086D01*
X76467086Y-114287643D01*
X76090140Y-114539511D01*
X75671305Y-114712998D01*
X75226674Y-114801440D01*
X74773326Y-114801440D01*
X74328695Y-114712998D01*
X73909860Y-114539511D01*
X73532914Y-114287643D01*
X73212357Y-113967086D01*
X72960489Y-113590140D01*
X72787002Y-113171305D01*
X72698560Y-112726674D01*
X72698560Y-112273326D01*
X72787002Y-111828695D01*
X72960489Y-111409860D01*
X73212357Y-111032914D01*
X73532914Y-110712357D01*
X73909860Y-110460489D01*
X74328695Y-110287002D01*
X74773326Y-110198560D01*
X75226674Y-110198560D01*
X75671305Y-110287002D01*
X75671305Y-110287002D01*
G37*
G36*
X106248228Y-106681703D02*
X106403100Y-106745853D01*
X106542481Y-106838985D01*
X106661015Y-106957519D01*
X106754147Y-107096900D01*
X106818297Y-107251772D01*
X106851000Y-107416184D01*
X106851000Y-107583816D01*
X106818297Y-107748228D01*
X106754147Y-107903100D01*
X106661015Y-108042481D01*
X106542481Y-108161015D01*
X106403100Y-108254147D01*
X106248228Y-108318297D01*
X106083816Y-108351000D01*
X105916184Y-108351000D01*
X105751772Y-108318297D01*
X105596900Y-108254147D01*
X105457519Y-108161015D01*
X105338985Y-108042481D01*
X105245853Y-107903100D01*
X105181703Y-107748228D01*
X105149000Y-107583816D01*
X105149000Y-107416184D01*
X105181703Y-107251772D01*
X105245853Y-107096900D01*
X105338985Y-106957519D01*
X105457519Y-106838985D01*
X105596900Y-106745853D01*
X105751772Y-106681703D01*
X105916184Y-106649000D01*
X106083816Y-106649000D01*
X106248228Y-106681703D01*
X106248228Y-106681703D01*
G37*
G36*
X72744096Y-101547033D02*
X72744098Y-101547034D01*
X72744099Y-101547034D01*
X73208352Y-101739333D01*
X73624284Y-102017250D01*
X73626171Y-102018511D01*
X73981489Y-102373829D01*
X73981491Y-102373832D01*
X74260667Y-102791648D01*
X74452966Y-103255901D01*
X74551000Y-103748748D01*
X74551000Y-104251252D01*
X74452966Y-104744099D01*
X74260667Y-105208352D01*
X73982750Y-105624284D01*
X73981489Y-105626171D01*
X73626171Y-105981489D01*
X73626168Y-105981491D01*
X73208352Y-106260667D01*
X72744099Y-106452966D01*
X72744098Y-106452966D01*
X72744096Y-106452967D01*
X72251253Y-106551000D01*
X71748747Y-106551000D01*
X71255904Y-106452967D01*
X71255902Y-106452966D01*
X71255901Y-106452966D01*
X70791648Y-106260667D01*
X70373832Y-105981491D01*
X70373829Y-105981489D01*
X70018511Y-105626171D01*
X70017250Y-105624284D01*
X69739333Y-105208352D01*
X69547034Y-104744099D01*
X69449000Y-104251252D01*
X69449000Y-103748748D01*
X69547034Y-103255901D01*
X69739333Y-102791648D01*
X70018509Y-102373832D01*
X70018511Y-102373829D01*
X70373829Y-102018511D01*
X70375716Y-102017250D01*
X70791648Y-101739333D01*
X71255901Y-101547034D01*
X71255902Y-101547034D01*
X71255904Y-101547033D01*
X71748747Y-101449000D01*
X72251253Y-101449000D01*
X72744096Y-101547033D01*
X72744096Y-101547033D01*
G37*
G36*
X72744096Y-93547033D02*
X72744098Y-93547034D01*
X72744099Y-93547034D01*
X73208352Y-93739333D01*
X73624284Y-94017250D01*
X73626171Y-94018511D01*
X73981489Y-94373829D01*
X73981491Y-94373832D01*
X74260667Y-94791648D01*
X74452966Y-95255901D01*
X74551000Y-95748748D01*
X74551000Y-96251252D01*
X74452966Y-96744099D01*
X74260667Y-97208352D01*
X73982750Y-97624284D01*
X73981489Y-97626171D01*
X73626171Y-97981489D01*
X73626168Y-97981491D01*
X73208352Y-98260667D01*
X72744099Y-98452966D01*
X72744098Y-98452966D01*
X72744096Y-98452967D01*
X72251253Y-98551000D01*
X71748747Y-98551000D01*
X71255904Y-98452967D01*
X71255902Y-98452966D01*
X71255901Y-98452966D01*
X70791648Y-98260667D01*
X70373832Y-97981491D01*
X70373829Y-97981489D01*
X70018511Y-97626171D01*
X70017250Y-97624284D01*
X69739333Y-97208352D01*
X69547034Y-96744099D01*
X69449000Y-96251252D01*
X69449000Y-95748748D01*
X69547034Y-95255901D01*
X69739333Y-94791648D01*
X70018509Y-94373832D01*
X70018511Y-94373829D01*
X70373829Y-94018511D01*
X70375716Y-94017250D01*
X70791648Y-93739333D01*
X71255901Y-93547034D01*
X71255902Y-93547034D01*
X71255904Y-93547033D01*
X71748747Y-93449000D01*
X72251253Y-93449000D01*
X72744096Y-93547033D01*
X72744096Y-93547033D01*
G37*
G36*
X94248228Y-91681703D02*
X94403100Y-91745853D01*
X94542481Y-91838985D01*
X94661015Y-91957519D01*
X94754147Y-92096900D01*
X94818297Y-92251772D01*
X94851000Y-92416184D01*
X94851000Y-92583816D01*
X94818297Y-92748228D01*
X94754147Y-92903100D01*
X94661015Y-93042481D01*
X94542481Y-93161015D01*
X94403100Y-93254147D01*
X94248228Y-93318297D01*
X94083816Y-93351000D01*
X93916184Y-93351000D01*
X93751772Y-93318297D01*
X93596900Y-93254147D01*
X93457519Y-93161015D01*
X93338985Y-93042481D01*
X93245853Y-92903100D01*
X93181703Y-92748228D01*
X93149000Y-92583816D01*
X93149000Y-92416184D01*
X93181703Y-92251772D01*
X93245853Y-92096900D01*
X93338985Y-91957519D01*
X93457519Y-91838985D01*
X93596900Y-91745853D01*
X93751772Y-91681703D01*
X93916184Y-91649000D01*
X94083816Y-91649000D01*
X94248228Y-91681703D01*
X94248228Y-91681703D01*
G37*
G36*
X75671305Y-85287002D02*
X76090140Y-85460489D01*
X76467086Y-85712357D01*
X76787643Y-86032914D01*
X77039511Y-86409860D01*
X77212998Y-86828695D01*
X77301440Y-87273326D01*
X77301440Y-87726674D01*
X77212998Y-88171305D01*
X77039511Y-88590140D01*
X76787643Y-88967086D01*
X76467086Y-89287643D01*
X76090140Y-89539511D01*
X75671305Y-89712998D01*
X75226674Y-89801440D01*
X74773326Y-89801440D01*
X74328695Y-89712998D01*
X73909860Y-89539511D01*
X73532914Y-89287643D01*
X73212357Y-88967086D01*
X72960489Y-88590140D01*
X72787002Y-88171305D01*
X72698560Y-87726674D01*
X72698560Y-87273326D01*
X72787002Y-86828695D01*
X72960489Y-86409860D01*
X73212357Y-86032914D01*
X73532914Y-85712357D01*
X73909860Y-85460489D01*
X74328695Y-85287002D01*
X74773326Y-85198560D01*
X75226674Y-85198560D01*
X75671305Y-85287002D01*
X75671305Y-85287002D01*
G37*
M02*
